<?xml version="1.0" encoding="utf-8"?>
<!-- Generator: Adobe Illustrator 25.2.3, SVG Export Plug-In . SVG Version: 6.00 Build 0)  -->
<svg version="1.1" id="편집영역" xmlns="http://www.w3.org/2000/svg" xmlns:xlink="http://www.w3.org/1999/xlink" x="0px"
	 y="0px" width="620.8px" height="280.6px" viewBox="0 0 620.8 280.6" enable-background="new 0 0 620.8 280.6"
	 xml:space="preserve">
<path d="M532.4,47.5c-4.1-1.2-9-2.6-13.1-3.7c-17.6-4.7-35.5-8.9-53.5-12.5c-0.2-0.1-10.8-2.1-11-2.1c-15.4-2.8-30.9-5.2-46.3-7.1
	c-4.3-0.5-9.3-1.1-13.6-1.6c-26.9-2.8-54-4.3-81.1-4.4C265.6,16,217.1,20.3,169.6,29c-0.8,0.1-1.6,0.3-2.4,0.4l-11,2.1
	C125.1,37.8,93.9,46,64,55.8c-3.4,1.1-7.5,2.5-10.9,3.7C35.1,65.7,17.4,72.6,0,80.1l74.1,182.6c8.8-3.8,17.7-7.5,26.7-10.9
	c0.4-0.1,10.3-3.8,10.7-3.9c27-9.4,62.8-19.1,90.8-24.5l9.4-1.7c0.1,0,2-0.3,2-0.4c40.7-6.8,81.9-9.3,122.9-7.6
	c22.9,1,45.9,3.3,68.7,6.9c0.5,0,11,1.9,11.4,1.9c12,2.2,25.4,5.2,38.9,8.7c2.7,0.7,6.5,1.7,9.2,2.4c15.7,4.2,31.3,8.9,44.8,13.5
	c0.5,0.1,10.4,3.8,10.9,4c2.1,0.8,4.1,1.6,6.2,2.4l72.5-183.3C577.3,61.6,555,54,532.4,47.5z"/>
</svg>
