<?xml version="1.0" encoding="utf-8"?>
<!-- Generator: Adobe Illustrator 27.1.0, SVG Export Plug-In . SVG Version: 6.00 Build 0)  -->
<svg version="1.1" xmlns="http://www.w3.org/2000/svg" xmlns:xlink="http://www.w3.org/1999/xlink" x="0px" y="0px"
	 viewBox="0 0 874.24 595.28" style="enable-background:new 0 0 874.24 595.28;" xml:space="preserve">
<style type="text/css">
	.st0{fill:none;stroke:#000000;stroke-width:0.216;stroke-miterlimit:2.6131;}
	.st1{fill:none;stroke:#000000;stroke-width:0.5;stroke-miterlimit:2.6131;}
	.st2{fill:none;stroke:#000000;stroke-width:0.5;stroke-miterlimit:2.6131;stroke-dasharray:3.9788,3.9788;}
	.st3{fill:none;stroke:#000000;stroke-width:0.5;stroke-miterlimit:2.6131;stroke-dasharray:3.984,3.984;}
	.st4{fill:none;stroke:#2E569B;stroke-miterlimit:10;}
	.st5{fill:#FFFFFF;}
	.st6{display:none;}
	.st7{display:inline;}
	.st8{fill:none;stroke:#EC008C;stroke-width:0.25;stroke-miterlimit:2.6131;}
	.st9{fill:none;stroke:#00AEEF;stroke-width:0.75;stroke-miterlimit:2.6131;}
</style>
<g id="Layer_1">
	<path class="st0" d="M105.89,136.08c0.14-0.1,0.3-0.17,0.46-0.22"/>
	<g>
		<g>
			<path class="st1" d="M110.37,169.47c0.64-0.17,1.28-0.34,1.93-0.52"/>
			<path class="st2" d="M116.14,167.94c47.84-12.49,110.49-24.88,158.3-31.24l11.25-1.45c111.06-13.78,223.04-13.06,333.92,2.13
				l11.23,1.59c48.36,7.06,111.89,20.51,159.8,33.79"/>
			<path class="st1" d="M792.55,173.3c0.64,0.18,1.29,0.36,1.92,0.54"/>
		</g>
	</g>
	<g>
		<g>
			<path class="st1" d="M186.64,482.52c0.64-0.18,1.28-0.36,1.92-0.54"/>
			<path class="st3" d="M192.41,480.92c35.06-9.57,80.47-19.11,115.26-24.18l11.23-1.57c82.04-10.95,164.86-11.14,246.95-0.55
				l11.24,1.52c35.46,5,81.94,14.61,117.29,24.19"/>
			<path class="st1" d="M696.3,480.84c0.65,0.18,1.29,0.35,1.93,0.53"/>
		</g>
	</g>
	<g>
		<path class="st0" d="M799.77,170.25c0.03-0.11,0.05-0.23,0.05-0.34"/>
		<g>
			<polyline class="st0" points="84.31,152.79 129.57,315.54 134.89,334.66 180.15,497.41 			"/>
			<line class="st0" x1="799.77" y1="170.25" x2="712.66" y2="483.46"/>
			<g>
				<line class="st0" x1="84.84" y1="151.26" x2="105.89" y2="136.08"/>
				<g>
					<line class="st0" x1="800.57" y1="141.93" x2="799.82" y2="169.91"/>
					<path class="st0" d="M788.81,137.56c2.08,0.5,10.73,2.96,10.73,2.96c0.62,0.18,1.05,0.75,1.03,1.4"/>
				</g>
				<g>
					<line class="st0" x1="800.57" y1="141.93" x2="799.82" y2="169.91"/>
					<path class="st0" d="M788.81,137.56c2.08,0.5,10.73,2.96,10.73,2.96c0.62,0.18,1.05,0.75,1.03,1.4"/>
				</g>
				<path class="st0" d="M712.67,483.46c-0.07,0.24-0.2,0.46-0.37,0.63l-17.76,17.43c-0.36,0.35-0.88,0.49-1.37,0.35
					c0,0-8.63-2.36-13.8-3.67"/>
				<path class="st0" d="M190.66,503.31c-2.18,0.62-4.51,0.34-6.48-0.77c-1.97-1.11-3.42-2.96-4.03-5.14"/>
				<path class="st0" d="M106.35,135.86c49.15-13.16,115.9-26.45,166.34-33.13l11.25-1.44c112.58-13.93,226.11-13.16,338.5,2.28
					l11.23,1.59c50.35,7.36,116.91,21.55,165.88,35.37"/>
				<path class="st0" d="M190.66,503.31c35.05-9.93,82.71-20.13,118.76-25.41l11.23-1.58c80.51-10.8,161.8-11.03,242.38-0.69
					l11.24,1.51c36.08,5.08,83.79,15,118.9,24.74"/>
				<path class="st0" d="M87.21,163.29l-2.9-10.5c-0.16-0.57,0.06-1.18,0.54-1.53"/>
			</g>
		</g>
	</g>
	<g>
		<path class="st0" d="M712.67,483.46c-0.07,0.24-0.2,0.46-0.37,0.63l-17.76,17.43c-0.36,0.35-0.88,0.49-1.37,0.35
			c0,0-8.63-2.36-13.8-3.67"/>
		<g>
			<line class="st0" x1="800.57" y1="141.93" x2="799.82" y2="169.91"/>
			<path class="st0" d="M788.81,137.56c2.08,0.5,10.73,2.96,10.73,2.96c0.62,0.18,1.05,0.75,1.03,1.4"/>
		</g>
		<path class="st0" d="M190.66,503.31c-2.18,0.62-4.51,0.34-6.48-0.77c-1.97-1.11-3.42-2.96-4.03-5.14"/>
		<g>
			<line class="st0" x1="84.84" y1="151.26" x2="105.89" y2="136.08"/>
			<path class="st0" d="M87.21,163.29l-2.9-10.5c-0.16-0.57,0.06-1.18,0.54-1.53"/>
		</g>
	</g>
	<path class="st4" d="M87.5,170.19L87.5,170.19l-0.05,0.02c-0.98,0.33-1.65,0.56-2,0.68l-2.69,0.91l85.53,307.53l4.22-1.32
		c281.29-85.35,520.89-6.65,520.89-6.65l85.35-307.1C425.77,62.33,117.3,160.21,87.5,170.19z"/>
	<g>
		<g>
			<g>
				<g>
					<path class="st5" d="M398.16,302.42c0.62-0.32,1.27-0.55,1.95-0.71c0.68-0.15,1.36-0.2,2.04-0.14
						c0.68,0.06,1.34,0.22,1.98,0.48c0.64,0.27,1.24,0.64,1.78,1.14c0.45,0.42,0.84,0.93,1.17,1.53c0.34,0.6,0.59,1.19,0.75,1.77
						c0.34,1.02,0.41,2.06,0.21,3.11c-0.2,1.05-0.57,2.03-1.1,2.95c-0.26,0.42-0.57,0.8-0.95,1.13c-0.38,0.34-0.78,0.61-1.21,0.83
						c-0.56,0.28-1.16,0.47-1.82,0.59c-0.65,0.12-1.29,0.16-1.91,0.12c-1.13-0.02-2.13-0.27-2.99-0.75
						c-0.87-0.48-1.58-1.1-2.12-1.87c-0.54-0.77-0.91-1.65-1.11-2.64c-0.19-0.99-0.17-2.02,0.08-3.08c0.26-1.13,0.67-2.06,1.23-2.78
						C396.7,303.38,397.37,302.82,398.16,302.42z M399.13,306.15c-0.28,0.27-0.48,0.61-0.62,1c-0.14,0.4-0.22,0.81-0.24,1.23
						c-0.02,0.42,0.02,0.84,0.14,1.26c0.12,0.42,0.29,0.79,0.53,1.12c0.2,0.28,0.54,0.5,1.04,0.67c0.49,0.17,1.01,0.27,1.54,0.29
						c0.6,0.02,1.13-0.16,1.57-0.53c0.44-0.38,0.77-0.84,1-1.39c0.22-0.55,0.32-1.14,0.28-1.78c-0.03-0.64-0.22-1.21-0.56-1.73
						c-0.24-0.37-0.56-0.64-0.97-0.8c-0.41-0.17-0.84-0.25-1.29-0.25c-0.45,0-0.89,0.08-1.32,0.23
						C399.79,305.64,399.43,305.86,399.13,306.15z"/>
					<path class="st5" d="M411.82,304.76c-0.01-0.43-0.02-0.89-0.04-1.38c-0.02-0.49,0.06-0.93,0.22-1.32
						c0.15-0.36,0.39-0.62,0.74-0.78c0.35-0.16,0.7-0.2,1.04-0.11c0.34,0.05,0.61,0.15,0.8,0.3c0.19,0.15,0.33,0.32,0.42,0.51
						c0.09,0.2,0.14,0.42,0.17,0.67c0.02,0.25,0.05,0.5,0.07,0.74c0.19-0.34,0.42-0.61,0.7-0.82c0.28-0.21,0.58-0.38,0.88-0.52
						c0.3-0.13,0.59-0.23,0.87-0.29c0.28-0.06,0.49-0.09,0.64-0.09c0.72-0.01,1.44,0.14,2.16,0.45c0.72,0.3,1.31,0.74,1.79,1.29
						c0.27,0.34,0.47,0.69,0.62,1.05c0.14,0.36,0.25,0.74,0.32,1.14c0.07,0.39,0.11,0.79,0.13,1.19c0.02,0.4,0.04,0.81,0.06,1.22
						c0.1,1.2,0.1,2.39,0.01,3.57c-0.02,0.24-0.03,0.52-0.03,0.84c0,0.32-0.02,0.63-0.07,0.94c-0.05,0.31-0.13,0.58-0.25,0.82
						c-0.12,0.23-0.32,0.38-0.6,0.44c-0.39,0.09-0.72,0.12-0.97,0.08c-0.25-0.05-0.46-0.13-0.61-0.26s-0.27-0.3-0.34-0.5
						c-0.08-0.21-0.14-0.44-0.2-0.7c-0.04-0.21-0.07-0.44-0.1-0.72c-0.03-0.27-0.05-0.55-0.06-0.83c-0.01-0.28-0.02-0.56-0.03-0.83
						c-0.01-0.27-0.02-0.52-0.02-0.74c0-0.36-0.02-0.75-0.04-1.18c-0.02-0.43-0.03-0.83-0.01-1.21c-0.01-0.88-0.24-1.55-0.71-2
						c-0.47-0.46-1.1-0.64-1.9-0.56c-0.61,0.08-1.13,0.33-1.58,0.73c-0.45,0.41-0.66,0.93-0.63,1.57c0,0.24,0.01,0.47,0.01,0.67
						c0,0.21,0,0.41-0.01,0.62c-0.01,0.21-0.01,0.43-0.01,0.67c0,0.24,0.01,0.51,0.01,0.81c0.01,0.62,0.02,1.27,0.03,1.95
						c0.01,0.68-0.07,1.24-0.23,1.67c-0.14,0.45-0.39,0.76-0.75,0.94c-0.35,0.17-0.78,0.13-1.27-0.12c-0.21-0.11-0.38-0.26-0.5-0.46
						c-0.13-0.19-0.22-0.4-0.29-0.63c-0.07-0.22-0.12-0.45-0.14-0.69c-0.02-0.23-0.05-0.45-0.07-0.66
						c-0.07-0.62-0.11-1.19-0.13-1.73c-0.02-0.53-0.03-1.11-0.04-1.73C411.86,307.45,411.84,306.11,411.82,304.76z"/>
					<path class="st5" d="M436.97,310.86c0.23-0.05,0.46-0.09,0.69-0.1c0.24-0.02,0.45,0.02,0.65,0.09c0.2,0.08,0.36,0.21,0.49,0.39
						c0.13,0.18,0.19,0.43,0.19,0.75c0,0.22-0.06,0.44-0.18,0.64c-0.11,0.2-0.26,0.39-0.43,0.56c-0.17,0.17-0.36,0.31-0.57,0.43
						c-0.21,0.12-0.41,0.22-0.6,0.29c-0.55,0.24-1.17,0.42-1.88,0.54c-0.71,0.12-1.43,0.17-2.18,0.12
						c-1.01-0.04-1.98-0.25-2.91-0.62c-0.93-0.37-1.66-0.97-2.18-1.82c-0.49-0.82-0.78-1.74-0.88-2.75
						c-0.09-1.01-0.05-1.97,0.14-2.87c0.21-1.08,0.56-1.97,1.07-2.65c0.5-0.68,1.11-1.23,1.81-1.64c0.86-0.48,1.82-0.73,2.89-0.74
						c1.07-0.01,2.08,0.2,3.05,0.64c0.64,0.29,1.22,0.67,1.73,1.16c0.51,0.48,0.89,1.06,1.15,1.74c0.07,0.17,0.13,0.38,0.18,0.62
						c0.04,0.24,0.07,0.5,0.09,0.77c0.02,0.27,0.01,0.54-0.01,0.8c-0.02,0.26-0.07,0.5-0.15,0.7c-0.12,0.34-0.26,0.6-0.44,0.78
						c-0.17,0.19-0.39,0.32-0.66,0.41c-0.27,0.09-0.58,0.15-0.95,0.17c-0.37,0.02-0.81,0.04-1.32,0.06
						c-0.45,0.02-0.88,0.02-1.27,0.02c-0.4,0-0.8-0.01-1.22-0.02c-0.42-0.01-0.84-0.02-1.29-0.04c-0.44-0.01-0.94-0.03-1.49-0.05
						c-0.06,0.37-0.01,0.7,0.15,0.97c0.16,0.27,0.38,0.5,0.66,0.68c0.28,0.18,0.6,0.32,0.96,0.41c0.36,0.1,0.71,0.15,1.04,0.18
						c0.64,0.04,1.25-0.01,1.84-0.14C435.74,311.2,436.34,311.05,436.97,310.86z M435.8,305.4c-0.36-0.41-0.73-0.72-1.13-0.91
						c-0.3-0.13-0.62-0.2-0.95-0.19c-0.33,0.01-0.65,0.06-0.95,0.15c-0.55,0.13-1.02,0.41-1.4,0.84c-0.04,0.04-0.11,0.13-0.2,0.27
						c-0.1,0.14-0.19,0.29-0.27,0.43c-0.09,0.15-0.15,0.29-0.19,0.42c-0.04,0.13-0.02,0.2,0.06,0.2c1.86,0.01,3.71,0.02,5.57,0.04
						c-0.02-0.26-0.06-0.48-0.14-0.66C436.12,305.81,435.99,305.61,435.8,305.4z"/>
					<path class="st5" d="M454.63,308.39c-0.06,0.62-0.11,1.24-0.17,1.86c-0.06,0.63-0.17,1.23-0.35,1.8
						c-0.18,0.58-0.44,1.09-0.78,1.55c-0.34,0.46-0.82,0.82-1.43,1.08c-0.53,0.25-1.1,0.41-1.7,0.5c-0.6,0.09-1.2,0.11-1.8,0.08
						c-0.6-0.03-1.18-0.13-1.74-0.31c-0.56-0.17-1.06-0.4-1.51-0.69c-0.44-0.29-0.8-0.66-1.08-1.12c-0.27-0.45-0.49-0.94-0.64-1.47
						c-0.15-0.53-0.25-1.07-0.3-1.63c-0.05-0.56-0.08-1.09-0.09-1.57c-0.05-1.29-0.03-2.57,0.07-3.82c0-0.24,0.01-0.52,0.01-0.83
						c0.01-0.31,0.03-0.61,0.09-0.91c0.05-0.3,0.14-0.57,0.26-0.82c0.12-0.25,0.31-0.44,0.58-0.57c0.58-0.29,1.11-0.3,1.59-0.02
						c0.48,0.27,0.76,0.82,0.84,1.65c0.05,0.43,0.06,0.91,0.04,1.43c-0.02,0.52-0.02,1,0.01,1.43c0.01,0.64,0.01,1.33,0.01,2.07
						c0,0.74,0.1,1.4,0.28,1.99c0.19,0.58,0.5,1.03,0.96,1.33c0.46,0.3,1.15,0.33,2.08,0.09c0.44-0.12,0.73-0.44,0.89-0.96
						c0.16-0.52,0.25-1.29,0.27-2.32c0.01-0.45,0.02-0.94,0.01-1.49c0-0.54,0-1.08,0.01-1.61c0.01-0.53,0.04-1.03,0.08-1.49
						c0.04-0.46,0.1-0.81,0.19-1.05c0.1-0.33,0.31-0.58,0.62-0.74c0.31-0.16,0.64-0.24,0.98-0.24c0.34,0,0.67,0.08,0.96,0.24
						c0.3,0.16,0.5,0.41,0.61,0.75c0.11,0.3,0.17,0.68,0.21,1.14c0.03,0.46,0.05,0.96,0.05,1.49c0,0.53-0.01,1.08-0.04,1.63
						C454.7,307.39,454.67,307.91,454.63,308.39z"/>
					<path class="st5" d="M461.97,313.09c-0.02,0.09-0.04,0.18-0.05,0.26c-0.01,0.08-0.02,0.17-0.02,0.27
						c-0.06,0.19-0.13,0.39-0.19,0.58c-0.04,0.07-0.07,0.12-0.09,0.14c-0.03,0.05-0.06,0.11-0.09,0.16c-0.1,0.2-0.28,0.36-0.53,0.49
						c-0.46,0.21-0.94,0.25-1.44,0.12c-0.32-0.05-0.57-0.15-0.75-0.31c-0.18-0.14-0.31-0.3-0.38-0.49
						c-0.07-0.19-0.12-0.38-0.15-0.57c-0.05-0.19-0.07-0.36-0.07-0.51c0.18-5.24,0.36-10.48,0.54-15.72c0-0.13,0.01-0.25,0.03-0.35
						c0.01-0.1,0.03-0.2,0.05-0.29c0.02-0.13,0.05-0.24,0.08-0.33c0.03-0.09,0.07-0.19,0.11-0.3c0.06-0.19,0.17-0.33,0.33-0.44
						c0.24-0.16,0.46-0.25,0.67-0.26c0.14-0.03,0.26-0.05,0.38-0.06c0.11-0.01,0.25,0,0.4,0c0.27,0.01,0.57,0.1,0.91,0.26
						c0.26,0.16,0.45,0.37,0.55,0.64c0.18,0.38,0.26,0.73,0.25,1.05c0.01,0.19,0.01,0.47,0.01,0.84c-0.01,0.38-0.01,0.66-0.02,0.84
						c0,0.04,0,0.07,0,0.11c0.01,0.6,0.01,1.18-0.01,1.73c-0.02,0.55-0.06,1.15-0.1,1.81c-0.03,0.64-0.05,1.25-0.09,1.84
						c-0.03,0.59-0.06,1.17-0.08,1.75c-0.08,1.96-0.15,3.93-0.23,5.89c0,0.08,0,0.15,0.01,0.21c0.01,0.07,0.01,0.14,0.01,0.21
						C462.01,312.85,462,312.99,461.97,313.09z"/>
					<path class="st5" d="M472.57,310.86c-0.35-0.24-0.74-0.44-1.18-0.59c-0.44-0.15-0.88-0.29-1.34-0.43
						c-0.46-0.13-0.9-0.28-1.33-0.44c-0.43-0.16-0.82-0.38-1.16-0.66c-0.75-0.61-1.17-1.35-1.25-2.21c-0.09-0.86,0.13-1.7,0.67-2.54
						c0.29-0.44,0.65-0.79,1.1-1.06c0.45-0.27,0.94-0.47,1.47-0.61c0.53-0.13,1.07-0.2,1.63-0.19c0.55,0.01,1.07,0.06,1.57,0.16
						c0.32,0.07,0.66,0.17,1.02,0.29c0.36,0.12,0.69,0.27,0.99,0.46c0.31,0.18,0.58,0.41,0.82,0.68c0.24,0.27,0.41,0.59,0.51,0.97
						c0.06,0.25,0.06,0.48,0,0.7c-0.06,0.22-0.16,0.4-0.31,0.55c-0.15,0.14-0.34,0.24-0.56,0.31c-0.22,0.06-0.46,0.07-0.7,0.02
						c-0.28-0.07-0.54-0.17-0.78-0.29c-0.24-0.12-0.48-0.26-0.72-0.4c-0.24-0.14-0.49-0.27-0.74-0.37c-0.25-0.11-0.52-0.17-0.8-0.18
						c-0.44-0.04-0.8,0.02-1.09,0.17c-0.29,0.15-0.5,0.35-0.61,0.59c-0.12,0.24-0.12,0.5-0.01,0.79c0.11,0.29,0.36,0.54,0.75,0.77
						c0.35,0.2,0.74,0.37,1.17,0.51c0.43,0.13,0.85,0.27,1.27,0.4c0.42,0.13,0.83,0.29,1.23,0.46c0.4,0.17,0.75,0.4,1.06,0.67
						c0.6,0.54,0.95,1.15,1.05,1.83c0.11,0.68,0.03,1.34-0.23,1.98c-0.26,0.64-0.68,1.2-1.26,1.68c-0.58,0.48-1.25,0.78-2.01,0.91
						c-0.55,0.08-1.14,0.11-1.77,0.08c-0.63-0.03-1.24-0.13-1.85-0.28c-0.6-0.16-1.17-0.39-1.72-0.7c-0.54-0.3-0.99-0.68-1.35-1.13
						c-0.25-0.31-0.37-0.66-0.36-1.04c0.01-0.38,0.1-0.72,0.27-1c0.17-0.28,0.41-0.47,0.72-0.57c0.31-0.1,0.64-0.02,1.01,0.24
						c0.29,0.22,0.64,0.44,1.05,0.65c0.4,0.22,0.81,0.39,1.22,0.52c0.41,0.13,0.81,0.21,1.19,0.23c0.39,0.02,0.72-0.05,1.01-0.2
						c0.43-0.24,0.66-0.53,0.69-0.88C472.93,311.33,472.83,311.06,472.57,310.86z"/>
					<path class="st5" d="M483.8,304.6c0.59-0.25,1.2-0.41,1.83-0.49c0.64-0.08,1.26-0.07,1.87,0.04c0.61,0.11,1.2,0.3,1.75,0.6
						c0.55,0.29,1.06,0.69,1.52,1.19c0.46,0.52,0.8,1.08,1.02,1.68c0.22,0.6,0.37,1.26,0.43,1.97c0.04,0.49,0.13,0.95,0.27,1.37
						c0.14,0.42,0.29,0.85,0.46,1.27c0.17,0.43,0.32,0.85,0.47,1.27c0.15,0.42,0.26,0.86,0.34,1.32c0.06,0.44,0,0.85-0.19,1.24
						c-0.19,0.39-0.53,0.61-1.02,0.67c-0.28,0.04-0.55-0.01-0.8-0.13c-0.25-0.12-0.46-0.29-0.66-0.5c-0.19-0.21-0.36-0.44-0.5-0.68
						c-0.14-0.24-0.27-0.47-0.39-0.69c-0.47,0.53-0.97,0.93-1.5,1.21c-0.53,0.27-1.15,0.43-1.87,0.48c-0.6,0.04-1.18,0.02-1.72-0.06
						c-0.54-0.07-1.12-0.21-1.72-0.42c-0.79-0.26-1.43-0.66-1.92-1.2c-0.49-0.54-0.84-1.17-1.08-1.86c-0.23-0.7-0.34-1.44-0.31-2.23
						c0.03-0.79,0.17-1.56,0.42-2.31c0.32-0.99,0.77-1.79,1.34-2.4C482.43,305.34,483.07,304.89,483.8,304.6z M484.3,307.92
						c-0.28,0.24-0.51,0.54-0.68,0.89c-0.17,0.35-0.29,0.71-0.34,1.1c-0.05,0.39-0.04,0.79,0.03,1.18c0.07,0.4,0.2,0.75,0.39,1.07
						c0.17,0.27,0.48,0.51,0.92,0.72c0.44,0.21,0.9,0.34,1.39,0.41c0.56,0.07,1.06-0.04,1.51-0.35c0.45-0.31,0.79-0.71,1.05-1.21
						c0.25-0.5,0.39-1.04,0.41-1.63c0.02-0.59-0.1-1.14-0.37-1.64c-0.2-0.37-0.48-0.65-0.84-0.84c-0.36-0.19-0.75-0.31-1.16-0.34
						c-0.42-0.04-0.83,0-1.25,0.12C484.93,307.5,484.58,307.68,484.3,307.92z"/>
					<path class="st5" d="M498.15,307.4c0.03-0.43,0.06-0.89,0.09-1.37c0.03-0.49,0.14-0.92,0.34-1.3c0.18-0.34,0.45-0.58,0.82-0.71
						c0.36-0.13,0.71-0.14,1.05-0.02c0.34,0.08,0.59,0.21,0.77,0.37c0.18,0.16,0.3,0.35,0.37,0.55c0.07,0.2,0.1,0.43,0.1,0.68
						c0,0.25,0,0.5,0,0.75c0.22-0.32,0.48-0.57,0.78-0.75c0.3-0.18,0.61-0.32,0.92-0.43c0.32-0.1,0.61-0.17,0.89-0.21
						c0.28-0.03,0.5-0.04,0.65-0.03c0.72,0.06,1.42,0.28,2.11,0.65c0.68,0.37,1.24,0.86,1.66,1.46c0.23,0.36,0.41,0.73,0.52,1.1
						c0.11,0.38,0.18,0.76,0.21,1.16c0.03,0.4,0.04,0.8,0.02,1.2c-0.02,0.4-0.04,0.81-0.05,1.22c-0.01,1.2-0.12,2.39-0.32,3.55
						c-0.04,0.24-0.08,0.52-0.1,0.84c-0.03,0.32-0.08,0.63-0.16,0.93c-0.07,0.3-0.18,0.57-0.33,0.79c-0.14,0.22-0.36,0.35-0.64,0.38
						c-0.4,0.06-0.73,0.05-0.97-0.02c-0.25-0.07-0.44-0.18-0.58-0.32c-0.14-0.14-0.24-0.32-0.29-0.53c-0.06-0.21-0.1-0.45-0.14-0.72
						c-0.02-0.21-0.03-0.45-0.04-0.72c0-0.27,0-0.55,0.02-0.83c0.01-0.28,0.03-0.56,0.04-0.83c0.01-0.27,0.03-0.52,0.05-0.74
						c0.03-0.35,0.06-0.75,0.07-1.18c0.02-0.43,0.05-0.83,0.1-1.2c0.08-0.88-0.1-1.56-0.52-2.06c-0.42-0.5-1.04-0.74-1.84-0.74
						c-0.61,0.02-1.16,0.22-1.65,0.58c-0.49,0.36-0.75,0.86-0.78,1.5c-0.02,0.24-0.04,0.47-0.05,0.67
						c-0.02,0.21-0.04,0.41-0.06,0.61c-0.03,0.2-0.05,0.43-0.07,0.67c-0.02,0.24-0.04,0.51-0.07,0.81c-0.05,0.62-0.1,1.26-0.16,1.95
						c-0.06,0.68-0.19,1.23-0.39,1.64c-0.19,0.44-0.46,0.72-0.83,0.86c-0.37,0.14-0.79,0.06-1.25-0.24c-0.2-0.13-0.35-0.29-0.45-0.5
						c-0.11-0.21-0.18-0.42-0.23-0.65c-0.05-0.23-0.07-0.46-0.07-0.7c0-0.24,0-0.46-0.01-0.66c-0.01-0.62,0-1.2,0.04-1.73
						c0.03-0.53,0.07-1.11,0.12-1.72C497.94,310.09,498.04,308.75,498.15,307.4z"/>
					<path class="st5" d="M523.32,300.06c0.37-0.06,0.69-0.04,0.96,0.06c0.27,0.09,0.5,0.25,0.68,0.45
						c0.18,0.21,0.31,0.46,0.38,0.75c0.08,0.29,0.1,0.6,0.06,0.94c-0.08,0.93-0.16,1.66-0.22,2.18c-0.07,0.52-0.12,0.98-0.16,1.37
						c-0.31,2.86-0.61,5.72-0.92,8.57c-0.11,1.01-0.2,1.84-0.27,2.51c-0.07,0.67-0.16,1.21-0.27,1.62c-0.11,0.41-0.26,0.71-0.44,0.9
						c-0.18,0.19-0.43,0.31-0.76,0.36c-0.33,0.05-0.75,0.05-1.26-0.01c-0.51-0.05-1.15-0.12-1.92-0.2c-2.02-0.21-3.56-0.84-4.64-1.9
						c-1.08-1.06-1.56-2.63-1.44-4.71c0.05-0.9,0.24-1.71,0.57-2.43c0.34-0.72,0.79-1.32,1.36-1.8c0.57-0.48,1.26-0.83,2.05-1.04
						c0.8-0.21,1.68-0.26,2.67-0.14c0.52,0.05,1.04,0.11,1.56,0.16c0.17-1.67,0.35-3.33,0.52-5c0.03-0.3,0.06-0.59,0.09-0.88
						c0.03-0.29,0.09-0.56,0.17-0.8c0.08-0.25,0.22-0.45,0.41-0.62C522.69,300.23,522.97,300.12,523.32,300.06z M516.79,315.06
						c0.34,0.58,1.02,0.95,2.05,1.11c0.2,0.04,0.4,0.07,0.59,0.07c0.19,0.01,0.36,0,0.51-0.02c0.17,0,0.33-0.01,0.49-0.04
						c0.18-1.72,0.36-3.45,0.53-5.17c-0.65-0.18-1.24-0.31-1.78-0.39c-0.53-0.08-1.09,0.06-1.66,0.41c-0.3,0.2-0.55,0.46-0.73,0.79
						c-0.19,0.33-0.31,0.69-0.36,1.07c-0.06,0.38-0.06,0.76,0,1.14C516.5,314.42,516.61,314.76,516.79,315.06z"/>
				</g>
				<g>
					<path class="st5" d="M406.65,282.68c0.23,0.02,0.42,0.07,0.59,0.15c0.17,0.08,0.29,0.22,0.37,0.44c0.18,0.48,0,0.83-0.52,1.05
						c-0.17,0.07-0.33,0.11-0.5,0.13c-0.17,0.02-0.33,0.03-0.48,0.03c-3.26,0.07-6.51,0.16-9.77,0.27
						c-0.28,0.01-0.57,0.01-0.87,0.02c-0.3,0-0.61,0-0.92,0c-0.29,0-0.54-0.1-0.75-0.28c-0.2-0.18-0.32-0.43-0.36-0.74
						c-0.04-0.47-0.08-0.94-0.11-1.42c-0.02-0.15-0.03-0.32-0.02-0.53c0.01-0.2,0.07-0.37,0.19-0.51c0.19-0.21,0.45-0.35,0.78-0.41
						c0.33-0.07,0.65-0.1,0.96-0.11c0.2-0.01,0.52-0.02,0.98-0.03c0.46-0.02,1.08-0.03,1.87-0.05c0.79-0.02,1.76-0.04,2.92-0.08
						c1.16-0.03,2.54-0.07,4.15-0.11c-0.01-0.24-0.01-0.49-0.02-0.73c-3.46,0.08-6.93,0.18-10.39,0.3c-0.14,0-0.27,0.01-0.38,0.01
						c-0.11,0-0.23-0.01-0.34-0.03c-0.13-0.02-0.24-0.05-0.34-0.07c-0.1-0.02-0.19-0.09-0.26-0.19c-0.21-0.28-0.27-0.57-0.18-0.87
						c0.04-0.11,0.1-0.2,0.18-0.26c0.08-0.06,0.18-0.12,0.29-0.16c0.11-0.04,0.22-0.08,0.32-0.09c0.1-0.02,0.2-0.03,0.28-0.05
						c0.21-0.05,0.43-0.08,0.65-0.08c0.2-0.01,0.41-0.01,0.65-0.02c0.23-0.01,0.51-0.01,0.84-0.02c0.32,0,0.7-0.01,1.13-0.03
						c0.43-0.01,0.93-0.03,1.51-0.05c-0.01-0.19,0-0.38,0-0.56c0.01-0.18,0.01-0.38,0-0.6c-0.33,0.01-0.61,0.02-0.86,0.03
						c-0.25,0.01-0.49,0.02-0.72,0.02c-0.23,0.01-0.47,0.01-0.71,0.01c-0.24,0-0.51,0-0.81,0c-0.13,0-0.31,0-0.55,0
						c-0.24,0-0.5-0.01-0.76,0c-0.27,0-0.52,0.01-0.75,0.01c-0.23,0-0.4,0-0.5,0.01c-0.23-0.02-0.41-0.04-0.54-0.06
						c-0.13-0.02-0.3-0.11-0.49-0.27c-0.1-0.08-0.18-0.16-0.22-0.24c-0.05-0.09-0.07-0.2-0.08-0.35c-0.01-0.3,0.07-0.54,0.25-0.72
						c0.09-0.11,0.23-0.2,0.39-0.26c0.17-0.06,0.33-0.1,0.48-0.13c0.16-0.03,0.29-0.04,0.41-0.05c0.12,0,0.19-0.01,0.2-0.01
						c4.05-0.14,8.1-0.26,12.14-0.35c0.21,0,0.42-0.01,0.64-0.01c0.21,0,0.42,0,0.62,0.01c0.2,0.01,0.39,0.03,0.59,0.06
						c0.19,0.03,0.37,0.11,0.53,0.24c0.16,0.11,0.25,0.23,0.27,0.37c0.02,0.14,0.04,0.29,0.04,0.46c0,0.2-0.05,0.36-0.17,0.47
						c-0.12,0.11-0.28,0.2-0.49,0.27c-0.28,0.11-0.59,0.18-0.94,0.19c-0.35,0.02-0.66,0.03-0.94,0.05
						c-0.71,0.04-1.39,0.08-2.04,0.11c-0.66,0.03-1.34,0.05-2.06,0.07c0.02,0.19,0.02,0.38,0.02,0.58c-0.01,0.2-0.01,0.39-0.01,0.58
						c1.09-0.03,2.17-0.06,3.26-0.08c0.72-0.02,1.27,0.08,1.66,0.28c0.38,0.2,0.58,0.54,0.59,1.01c0.01,0.48,0.02,0.96,0.03,1.44
						c0,0.19-0.04,0.38-0.13,0.56c-0.09,0.18-0.24,0.34-0.46,0.47c-0.18,0.11-0.36,0.17-0.54,0.18c-0.18,0.01-0.37,0.02-0.55,0.02
						c-3.33,0.08-6.66,0.17-9.98,0.28c0.01,0.24,0.02,0.49,0.02,0.73C399.51,282.85,403.08,282.76,406.65,282.68z M393,271.12
						c-0.02-0.55,0.13-1.02,0.45-1.4c0.32-0.38,0.79-0.68,1.4-0.91c0.61-0.23,1.37-0.4,2.26-0.52c0.89-0.12,1.91-0.19,3.05-0.22
						c1.08-0.03,2.07-0.03,2.97,0.01c0.9,0.04,1.67,0.15,2.32,0.34c0.65,0.19,1.15,0.46,1.5,0.83c0.36,0.36,0.54,0.85,0.55,1.46
						c0.01,0.61-0.13,1.1-0.42,1.48c-0.29,0.38-0.74,0.67-1.34,0.88c-0.61,0.21-1.36,0.36-2.27,0.45c-0.91,0.09-1.96,0.15-3.16,0.19
						c-1.01,0.03-1.95,0.02-2.82-0.02c-0.87-0.04-1.64-0.15-2.31-0.32c-0.67-0.17-1.19-0.44-1.58-0.8
						C393.23,272.21,393.03,271.73,393,271.12z M404.6,270.78c0-0.22-0.14-0.38-0.41-0.49c-0.27-0.11-0.61-0.19-1.02-0.24
						c-0.41-0.05-0.88-0.08-1.4-0.08c-0.52,0-1.04,0.01-1.55,0.02c-0.51,0.01-1.02,0.04-1.51,0.06c-0.5,0.03-0.95,0.08-1.34,0.15
						c-0.4,0.07-0.72,0.17-0.96,0.29c-0.24,0.12-0.36,0.29-0.36,0.51c0.01,0.19,0.13,0.33,0.38,0.43c0.25,0.1,0.57,0.17,0.97,0.2
						c0.4,0.04,0.84,0.05,1.33,0.05c0.49,0,0.99-0.01,1.5-0.02c0.51-0.01,1.03-0.03,1.54-0.03c0.52-0.01,0.99-0.03,1.42-0.08
						c0.43-0.04,0.77-0.13,1.03-0.25C404.48,271.2,404.61,271.02,404.6,270.78z"/>
					<path class="st5" d="M417.37,276.79c-0.2-0.08-0.34-0.23-0.43-0.46c-0.12-0.27-0.14-0.54-0.06-0.81
						c0.07-0.27,0.2-0.53,0.36-0.78c0.17-0.24,0.36-0.48,0.58-0.7c0.22-0.22,0.4-0.42,0.56-0.61c0.24-0.29,0.47-0.57,0.69-0.86
						c0.22-0.29,0.46-0.58,0.7-0.88c0.17-0.23,0.34-0.5,0.53-0.82c0.18-0.31,0.29-0.62,0.31-0.92c0-0.08,0.01-0.19,0.02-0.31
						c0.01-0.13,0.02-0.26,0.03-0.41c0.01-0.14,0.02-0.27,0.03-0.4c0.01-0.12,0.03-0.22,0.06-0.31c0.08-0.27,0.22-0.46,0.41-0.56
						c0.19-0.1,0.49-0.16,0.89-0.16c0.23,0,0.48,0.04,0.77,0.11c0.29,0.07,0.48,0.22,0.58,0.43c0.1,0.24,0.13,0.52,0.1,0.84
						c-0.03,0.32-0.01,0.61,0.08,0.86c0.07,0.2,0.18,0.41,0.32,0.63c0.14,0.22,0.29,0.43,0.45,0.65c0.27,0.36,0.54,0.76,0.81,1.18
						c0.27,0.43,0.52,0.79,0.75,1.08c0.23,0.28,0.45,0.58,0.66,0.88c0.21,0.3,0.35,0.63,0.43,0.98c0.07,0.3,0.04,0.55-0.1,0.74
						c-0.13,0.2-0.31,0.34-0.54,0.43c-0.23,0.09-0.47,0.11-0.74,0.06c-0.27-0.05-0.5-0.17-0.7-0.35c-0.52-0.51-1-1.06-1.43-1.65
						c-0.43-0.59-0.87-1.16-1.33-1.73c-0.25,0.27-0.47,0.52-0.66,0.73c-0.18,0.22-0.39,0.46-0.61,0.71
						c-0.22,0.26-0.44,0.5-0.63,0.73c-0.2,0.23-0.37,0.43-0.52,0.6c-0.15,0.17-0.24,0.28-0.26,0.32c-0.15,0.18-0.33,0.33-0.53,0.47
						c-0.2,0.14-0.41,0.23-0.65,0.29c-0.16,0.03-0.31,0.04-0.48,0.05C417.67,276.89,417.51,276.85,417.37,276.79z M420.68,283.82
						c-0.57,0-1.04-0.11-1.39-0.34c-0.35-0.23-0.53-0.51-0.53-0.82c-0.01-0.97-0.02-1.95-0.03-2.92c-0.03-0.3-0.03-0.6-0.01-0.91
						c0.02-0.28,0.14-0.51,0.34-0.69c0.2-0.18,0.47-0.27,0.79-0.27c0.07,0,0.2,0,0.38,0.01c0.18,0.01,0.31,0.02,0.38,0.05
						c0.18,0.05,0.33,0.13,0.44,0.24c0.11,0.11,0.19,0.23,0.24,0.37c0.06,0.14,0.09,0.29,0.11,0.45c0.02,0.16,0.03,0.31,0.05,0.46
						c0,0.05,0,0.18,0.01,0.37c0.01,0.2,0.02,0.41,0.03,0.63c0.01,0.22,0.02,0.43,0.02,0.62c0.01,0.19,0.02,0.3,0.03,0.34
						c0.04,0.01,0.16,0.03,0.35,0.05c0.19,0.02,0.54,0.03,1.06,0.03c0.45,0,0.73-0.01,0.83-0.02c0.1-0.01,0.17-0.02,0.18-0.02
						c2.3-0.01,4.59-0.01,6.89,0c0.18,0.05,0.33,0.11,0.44,0.17c0.11,0.06,0.22,0.14,0.32,0.25c0.1,0.1,0.16,0.22,0.19,0.36
						c0.07,0.51-0.03,0.91-0.28,1.2c-0.17,0.19-0.35,0.3-0.55,0.34c-0.2,0.04-0.3,0.06-0.32,0.06
						C427.34,283.79,424.01,283.8,420.68,283.82z M431.41,274.03c0,0.7-0.01,1.41-0.01,2.11c-0.02,0.15-0.04,0.3-0.07,0.46
						c-0.03,0.16-0.09,0.31-0.17,0.46c-0.1,0.18-0.22,0.3-0.36,0.38c-0.23,0.15-0.47,0.22-0.72,0.22c-0.21,0-0.41-0.05-0.59-0.16
						c-0.14-0.08-0.25-0.18-0.34-0.31c-0.08-0.12-0.15-0.24-0.2-0.35c-0.05-0.11-0.09-0.25-0.12-0.43c0-2.37,0.01-4.75,0.01-7.12
						c0-0.07,0.01-0.22,0.03-0.46c0.02-0.24,0.07-0.44,0.16-0.6c0.14-0.28,0.44-0.45,0.88-0.48c0.24-0.03,0.47-0.01,0.68,0.04
						c0.21,0.06,0.38,0.14,0.49,0.27c0.09,0.11,0.15,0.21,0.18,0.32c0.03,0.1,0.07,0.21,0.09,0.31c0.04,0.14,0.07,0.28,0.07,0.43
						c0.01,0.15,0,0.3-0.01,0.45c0,0.73-0.01,1.46-0.01,2.19c0.06,0,0.16,0.01,0.32,0.02c0.16,0.01,0.32,0.03,0.5,0.03
						c0.18,0.01,0.34,0.02,0.5,0.03c0.16,0.01,0.26,0.03,0.32,0.04c0.28,0.06,0.48,0.14,0.6,0.24c0.11,0.1,0.19,0.23,0.23,0.38
						c0.03,0.15,0.04,0.32,0.04,0.52c0,0.2-0.05,0.36-0.13,0.5c-0.17,0.27-0.43,0.42-0.77,0.46c-0.34,0.04-0.72,0.06-1.13,0.05
						C431.73,274.03,431.57,274.03,431.41,274.03z"/>
					<path class="st5" d="M456.38,280.73c0.04,0.02,0.08,0.02,0.13,0.01c0.04,0,0.08-0.01,0.13-0.01c0.24,0.03,0.46,0.09,0.66,0.15
						c0.2,0.07,0.4,0.19,0.59,0.35c0.19,0.2,0.28,0.44,0.27,0.72c0,0.15-0.03,0.31-0.09,0.47c-0.06,0.17-0.13,0.3-0.21,0.39
						c-0.12,0.1-0.26,0.18-0.43,0.23c-0.17,0.05-0.33,0.08-0.49,0.1c-0.16,0.02-0.29,0.02-0.41,0.02c-0.12,0-0.19-0.01-0.2-0.01
						c-3.93-0.12-7.86-0.22-11.78-0.3c-0.07,0-0.14,0-0.21,0.01c-0.07,0.01-0.14,0.01-0.21,0.01c-0.29,0.01-0.61,0-0.95-0.03
						c-0.34-0.03-0.62-0.14-0.86-0.33c-0.29-0.26-0.43-0.55-0.43-0.88c0-0.2,0.07-0.41,0.2-0.63c0.13-0.21,0.3-0.36,0.51-0.44
						c0.28-0.1,0.58-0.15,0.88-0.15c0.3,0.01,0.61,0,0.92,0c0.04,0,0.07,0,0.11,0c1.22,0,2.48,0.02,3.78,0.08
						c0.02-0.99,0.03-1.97,0.05-2.96c-0.42-0.04-0.84-0.09-1.25-0.17c-0.41-0.08-0.8-0.19-1.18-0.35c-0.38-0.16-0.73-0.36-1.06-0.6
						c-0.33-0.24-0.62-0.54-0.86-0.9c-0.32-0.42-0.53-0.87-0.62-1.35c-0.1-0.48-0.14-0.97-0.13-1.48c0.02-1.05,0.33-1.93,0.93-2.63
						c0.6-0.7,1.42-1.19,2.45-1.48c0.69-0.2,1.39-0.33,2.09-0.37c0.71-0.04,1.42-0.03,2.13,0.04c0.58,0.05,1.17,0.12,1.75,0.21
						c0.58,0.08,1.14,0.25,1.68,0.49c0.24,0.12,0.47,0.25,0.69,0.41c0.22,0.16,0.43,0.34,0.62,0.55c0.48,0.53,0.81,1.09,0.97,1.69
						c0.17,0.6,0.21,1.24,0.13,1.91c-0.08,0.77-0.29,1.41-0.63,1.94c-0.34,0.52-0.77,0.95-1.28,1.28c-0.51,0.33-1.09,0.57-1.74,0.71
						c-0.65,0.14-1.32,0.21-2.01,0.19c-0.01,0.98-0.02,1.96-0.03,2.94c0.39,0.01,0.75,0.02,1.08,0.02c0.32,0,0.64,0.01,0.95,0.02
						c0.31,0.01,0.62,0.02,0.93,0.03c0.31,0.01,0.65,0.03,1.01,0.05c0.25,0.02,0.5,0.02,0.74,0.01
						C455.93,280.68,456.16,280.69,456.38,280.73z M453.88,273.73c0.05-0.17,0.07-0.34,0.06-0.51c-0.01-0.7-0.22-1.23-0.65-1.59
						c-0.42-0.36-0.98-0.59-1.66-0.68c-0.4-0.05-0.88-0.11-1.47-0.17c-0.58-0.06-1.15-0.06-1.72,0.01
						c-0.56,0.07-1.06,0.22-1.49,0.46c-0.43,0.24-0.7,0.63-0.79,1.17c-0.05,0.32-0.05,0.63-0.01,0.93c0.04,0.3,0.16,0.56,0.33,0.8
						c0.18,0.23,0.43,0.43,0.75,0.6c0.32,0.17,0.74,0.28,1.24,0.33c0.49,0.07,1,0.12,1.51,0.18c0.51,0.05,1.02,0.04,1.52-0.04
						c0.24-0.03,0.49-0.09,0.74-0.15c0.25-0.07,0.48-0.16,0.7-0.28c0.22-0.12,0.4-0.26,0.56-0.44
						C453.68,274.18,453.8,273.97,453.88,273.73z"/>
					<path class="st5" d="M468.37,275.25c0.11-0.01,0.25-0.01,0.39-0.01c0.15,0,0.29,0,0.44,0.01c0.17,0.01,0.34,0.02,0.51,0.02
						c1.53,0.07,3.06,0.14,4.58,0.22c0.74,0.02,1.46,0.05,2.16,0.09c0.61,0.03,1.24,0.07,1.9,0.1c0.66,0.04,1.22,0.07,1.69,0.11
						c0.03,0,0.06,0,0.08,0c0.28,0.03,0.56,0.05,0.85,0.07c0.28,0.02,0.56,0.08,0.82,0.19c0.43,0.2,0.63,0.5,0.61,0.91
						c-0.02,0.34-0.18,0.6-0.47,0.79c-0.22,0.18-0.5,0.27-0.82,0.28c-0.33,0.01-0.63-0.01-0.91-0.05c-3.98-0.22-7.96-0.42-11.94-0.6
						c-0.01,0-0.08,0-0.19-0.01c-0.11,0-0.24-0.02-0.39-0.06c-0.15-0.03-0.3-0.08-0.45-0.13c-0.15-0.05-0.28-0.14-0.37-0.25
						c-0.08-0.08-0.14-0.19-0.18-0.31c-0.04-0.12-0.05-0.25-0.05-0.37c0.01-0.27,0.11-0.49,0.3-0.66c0.19-0.15,0.38-0.24,0.58-0.27
						c0.19-0.02,0.4-0.05,0.61-0.06c0.04,0,0.09,0,0.13,0C468.28,275.25,468.33,275.25,468.37,275.25z M480.43,283.84
						c0.22,0.04,0.42,0.1,0.58,0.2c0.16,0.09,0.27,0.25,0.33,0.47c0.14,0.5-0.06,0.83-0.61,1c-0.17,0.06-0.34,0.09-0.51,0.09
						c-0.17,0-0.33,0-0.48-0.01c-3.25-0.18-6.51-0.35-9.76-0.5c-0.28-0.01-0.57-0.03-0.87-0.05c-0.3-0.02-0.61-0.04-0.91-0.07
						c-0.29-0.03-0.54-0.14-0.72-0.34c-0.19-0.2-0.29-0.45-0.3-0.76c0-0.47,0-0.95,0-1.42c-0.01-0.15,0.02-0.32,0.08-0.52
						c0.06-0.2,0.15-0.37,0.28-0.5c0.21-0.19,0.46-0.32,0.76-0.36c0.3-0.05,0.6-0.07,0.91-0.05c0.2,0.01,0.5,0.02,0.92,0.04
						c0.41,0.02,0.99,0.04,1.72,0.07c0.73,0.03,1.66,0.07,2.77,0.13c1.12,0.06,2.48,0.13,4.08,0.22c0.01-0.26,0.03-0.51,0.04-0.77
						c-3.32-0.18-6.64-0.35-9.96-0.5c-0.14-0.01-0.27-0.01-0.38-0.02c-0.11-0.01-0.22-0.02-0.34-0.05c-0.12-0.03-0.24-0.06-0.33-0.1
						c-0.1-0.03-0.18-0.1-0.24-0.21c-0.18-0.29-0.22-0.58-0.11-0.88c0.05-0.11,0.11-0.19,0.2-0.25c0.09-0.06,0.19-0.1,0.3-0.14
						c0.11-0.03,0.23-0.06,0.33-0.07c0.11-0.01,0.2-0.02,0.29-0.03c0.21-0.03,0.43-0.04,0.66-0.03c0.21,0.01,0.43,0.02,0.65,0.03
						c0.22,0.01,0.49,0.02,0.8,0.04c0.32,0.01,0.7,0.04,1.14,0.06c0.44,0.03,1,0.06,1.66,0.09c0.66,0.03,1.45,0.07,2.37,0.12
						c0.92,0.05,2.01,0.11,3.28,0.18c0.72,0.04,1.26,0.18,1.63,0.41c0.37,0.23,0.54,0.58,0.51,1.06c-0.03,0.52-0.06,1.04-0.09,1.56
						c-0.01,0.19-0.07,0.37-0.17,0.55c-0.1,0.18-0.27,0.32-0.5,0.43c-0.19,0.1-0.37,0.14-0.56,0.14c-0.18,0-0.37-0.01-0.55-0.02
						c-3.19-0.18-6.37-0.34-9.56-0.49c-0.01,0.24-0.02,0.47-0.03,0.71C473.29,283.45,476.86,283.64,480.43,283.84z M469.37,268.55
						c0.17-0.06,0.34-0.09,0.5-0.08c0.07,0,0.15,0.01,0.24,0.02c0.09,0.01,0.16,0.03,0.23,0.06c0.25,0.08,0.44,0.21,0.56,0.39
						c0.11,0.15,0.18,0.31,0.21,0.48c0.02,0.11,0.04,0.22,0.05,0.35c0.01,0.12,0.02,0.24,0.03,0.37c0.02,0.42,0.05,0.84,0.07,1.26
						c0.01,0.12,0,0.21-0.01,0.26c-0.02,0.05,0,0.14,0.05,0.25c0.04,0.11,0.09,0.18,0.15,0.22c0.06,0.04,0.14,0.06,0.22,0.07
						c0.08,0.01,0.17,0.01,0.26,0c0.09-0.01,0.17-0.01,0.26,0.01c2.06,0.1,4.12,0.2,6.17,0.31c0.16-0.01,0.32,0,0.49,0.02
						c0.17,0.02,0.34,0.03,0.51,0.04c0.25,0.01,0.53,0.07,0.83,0.16c0.3,0.09,0.53,0.28,0.68,0.56c0.13,0.22,0.16,0.41,0.1,0.54
						c-0.06,0.14-0.21,0.29-0.43,0.45c-0.18,0.12-0.38,0.21-0.6,0.26c-0.22,0.05-0.45,0.08-0.68,0.08
						c-0.23,0.01-0.46,0.01-0.69-0.01c-0.23-0.01-0.46-0.02-0.67-0.04c-0.11-0.01-0.23-0.02-0.36-0.03
						c-0.13-0.01-0.25-0.02-0.36-0.01c-0.24-0.01-0.48-0.03-0.72-0.04c-0.11-0.01-0.37-0.02-0.75-0.04
						c-0.39-0.02-0.8-0.04-1.24-0.06c-0.44-0.02-0.85-0.04-1.24-0.06c-0.39-0.02-0.64-0.03-0.75-0.04
						c-0.21-0.02-0.43-0.04-0.66-0.04c-0.23,0-0.45-0.01-0.68-0.02c-0.24-0.01-0.5-0.03-0.77-0.05c-0.27-0.02-0.54-0.07-0.78-0.15
						c-0.25-0.08-0.46-0.2-0.65-0.35c-0.19-0.16-0.32-0.38-0.4-0.67c-0.05-0.15-0.09-0.28-0.12-0.4c-0.03-0.12-0.04-0.25-0.04-0.4
						c0.02-0.07,0.03-0.21,0.04-0.42c0.01-0.22,0.02-0.45,0.02-0.7c0-0.25,0.01-0.48,0.01-0.7c0-0.22,0.01-0.36,0.01-0.43
						c0.04-0.17,0.08-0.35,0.13-0.51c0.05-0.17,0.12-0.32,0.21-0.47c0.06-0.08,0.15-0.16,0.28-0.24
						C469.17,268.69,469.28,268.62,469.37,268.55z"/>
					<path class="st5" d="M490.96,278.71c-0.19-0.11-0.31-0.27-0.35-0.49c-0.09-0.28-0.1-0.55-0.01-0.8
						c0.09-0.26,0.22-0.5,0.39-0.74c0.17-0.23,0.36-0.45,0.57-0.65c0.21-0.2,0.39-0.39,0.54-0.57c0.22-0.27,0.44-0.51,0.66-0.73
						c0.22-0.21,0.45-0.46,0.68-0.75c0.16-0.22,0.33-0.45,0.53-0.69c0.2-0.24,0.32-0.5,0.37-0.8c0.02-0.23,0.04-0.46,0.07-0.71
						c0.03-0.24,0.09-0.46,0.16-0.65c0.08-0.19,0.19-0.34,0.34-0.46c0.15-0.12,0.36-0.17,0.63-0.15c0.21,0.02,0.46,0.06,0.74,0.13
						c0.28,0.07,0.46,0.21,0.53,0.44c0.05,0.13,0.07,0.27,0.06,0.42c0,0.16-0.01,0.31-0.02,0.48c-0.01,0.16-0.02,0.32-0.04,0.48
						c-0.01,0.16,0,0.29,0.03,0.42c0.05,0.23,0.11,0.43,0.16,0.6c0.05,0.17,0.13,0.35,0.23,0.55c0.21,0.42,0.42,0.79,0.63,1.1
						c0.21,0.31,0.43,0.66,0.66,1.06c0.18,0.3,0.34,0.59,0.48,0.88c0.14,0.29,0.23,0.61,0.28,0.97c0.03,0.29-0.01,0.53-0.14,0.72
						c-0.13,0.19-0.3,0.33-0.51,0.4c-0.21,0.07-0.43,0.08-0.66,0.02c-0.23-0.06-0.42-0.19-0.58-0.39c-0.69-1.05-1.39-2.1-2.09-3.14
						c-0.81,0.83-1.61,1.66-2.41,2.49c-0.15,0.15-0.32,0.29-0.51,0.42c-0.19,0.13-0.38,0.21-0.58,0.25
						c-0.16,0.02-0.31,0.02-0.46,0.02C491.2,278.82,491.07,278.78,490.96,278.71z M505.2,285.52c0.03,0.52-0.1,0.91-0.37,1.17
						c-0.18,0.17-0.37,0.27-0.57,0.3c-0.2,0.02-0.31,0.04-0.32,0.03c-3.36-0.28-6.71-0.54-10.07-0.78
						c-0.57-0.04-1.06-0.16-1.47-0.36c-0.41-0.2-0.6-0.45-0.58-0.76c0.07-1.03,0.14-2.05,0.21-3.08c-0.01-0.3,0.01-0.6,0.06-0.91
						c0.05-0.28,0.18-0.5,0.4-0.66c0.22-0.16,0.49-0.23,0.81-0.21c0.07,0,0.2,0.02,0.38,0.05c0.18,0.03,0.31,0.06,0.38,0.09
						c0.18,0.07,0.32,0.15,0.42,0.26c0.1,0.11,0.17,0.24,0.22,0.38c0.04,0.15,0.07,0.3,0.07,0.45c0,0.16,0.01,0.31,0.01,0.46
						c0,0.07-0.01,0.2-0.02,0.38c-0.01,0.19-0.01,0.39-0.02,0.6c-0.01,0.21-0.02,0.41-0.02,0.6c-0.01,0.19,0,0.3,0.01,0.35
						c0.04,0.02,0.16,0.04,0.34,0.08c0.19,0.03,0.54,0.07,1.06,0.11c0.45,0.03,0.73,0.05,0.83,0.04c0.11-0.01,0.17-0.01,0.18-0.01
						c2.4,0.18,4.8,0.37,7.19,0.57c0.18,0.07,0.32,0.14,0.43,0.21c0.11,0.07,0.2,0.16,0.29,0.27
						C505.13,285.26,505.18,285.39,505.2,285.52z M505.69,279.93c0,0.01-0.01,0.06-0.02,0.14c-0.01,0.08-0.05,0.18-0.1,0.29
						c-0.05,0.11-0.12,0.22-0.21,0.34c-0.09,0.12-0.2,0.21-0.35,0.28c-0.16,0.08-0.33,0.11-0.5,0.1c-0.28-0.02-0.51-0.11-0.68-0.26
						c-0.15-0.12-0.25-0.26-0.33-0.43c-0.1-0.2-0.15-0.44-0.17-0.71c-0.01-0.28-0.01-0.56,0.01-0.85c0.02-0.29,0.04-0.58,0.08-0.87
						c0.04-0.29,0.07-0.53,0.08-0.74c0.01-0.09,0.01-0.18,0.02-0.26c-0.16,0-0.31,0-0.46-0.02c-0.15-0.01-0.29-0.02-0.43-0.03
						c-0.02,0-0.04,0-0.06-0.01c-0.06,0.75-0.12,1.5-0.18,2.24c-0.03,0.15-0.06,0.3-0.1,0.45c-0.04,0.15-0.11,0.3-0.21,0.44
						c-0.11,0.17-0.24,0.29-0.39,0.35c-0.1,0.06-0.19,0.11-0.27,0.14c-0.07,0.03-0.17,0.05-0.3,0.04c-0.2-0.02-0.39-0.08-0.58-0.21
						c-0.13-0.09-0.24-0.2-0.31-0.33c-0.08-0.13-0.13-0.25-0.16-0.36c-0.03-0.11-0.06-0.26-0.07-0.43c0.18-2.36,0.37-4.72,0.55-7.08
						c-0.01-0.07,0.01-0.22,0.05-0.45c0.04-0.23,0.11-0.43,0.21-0.58c0.16-0.27,0.47-0.41,0.91-0.42c0.24-0.01,0.44,0.02,0.59,0.09
						c0.15,0.07,0.28,0.17,0.38,0.3c0.09,0.12,0.15,0.23,0.17,0.33c0.02,0.1,0.04,0.21,0.06,0.32c0.03,0.14,0.04,0.28,0.04,0.43
						c-0.01,0.15-0.01,0.3-0.03,0.44c-0.02,0.05-0.03,0.13-0.04,0.24c-0.05,0.59-0.1,1.19-0.14,1.78c0.07,0.02,0.2,0.04,0.39,0.06
						c0.19,0.02,0.39,0.05,0.58,0.08c0.05-0.63,0.1-1.27,0.15-1.9c0.01-0.08,0.01-0.16,0.02-0.24c0-0.15,0.01-0.29,0.02-0.44
						c0.02-0.14,0.06-0.28,0.11-0.43c0.07-0.2,0.22-0.39,0.43-0.58c0.25-0.25,0.59-0.33,1.03-0.24c0.37,0.08,0.61,0.28,0.72,0.59
						c0.07,0.17,0.11,0.37,0.11,0.6c0,0.23-0.01,0.37-0.03,0.43C506.1,275.01,505.89,277.47,505.69,279.93z"/>
					<path class="st5" d="M516.04,286.82c-0.22-0.04-0.44-0.09-0.65-0.15c-0.21-0.07-0.4-0.15-0.56-0.26
						c-0.16-0.1-0.28-0.24-0.37-0.41c-0.09-0.17-0.12-0.39-0.1-0.66c0.02-0.27,0.14-0.5,0.34-0.68c0.12-0.1,0.27-0.16,0.44-0.2
						c0.17-0.04,0.34-0.06,0.5-0.08c0.16-0.01,0.29-0.01,0.41,0c0.12,0.01,0.19,0.02,0.2,0.02c3.83,0.37,7.67,0.77,11.5,1.19
						c0.36,0.04,0.7,0.08,1,0.12c0.3,0.04,0.56,0.17,0.78,0.38c0.27,0.29,0.38,0.59,0.35,0.92c-0.02,0.2-0.11,0.38-0.25,0.53
						c-0.14,0.15-0.33,0.25-0.54,0.3c-0.29,0.08-0.59,0.12-0.89,0.13c-0.3,0.01-0.6,0-0.9-0.02c-1.02-0.07-2.03-0.16-3.02-0.28
						c-0.99-0.12-1.95-0.22-2.89-0.32c-1.01-0.1-1.99-0.19-2.95-0.27C517.46,286.99,516.67,286.91,516.04,286.82z M528.56,280.88
						c0.15,0.08,0.26,0.21,0.33,0.37c0.07,0.16,0.13,0.32,0.15,0.48c0.04,0.3-0.06,0.57-0.3,0.78c-0.22,0.21-0.48,0.36-0.76,0.45
						c-0.29,0.09-0.59,0.14-0.9,0.16c-0.31,0.01-0.63,0-0.95-0.03c-0.32-0.03-0.63-0.07-0.91-0.1c-1.12-0.12-2.26-0.22-3.41-0.32
						c-1.15-0.1-2.29-0.21-3.42-0.35c-0.2-0.02-0.4-0.05-0.61-0.09c-0.21-0.04-0.41-0.1-0.6-0.18c-0.19-0.08-0.36-0.19-0.51-0.32
						c-0.15-0.14-0.27-0.3-0.35-0.5c-0.1-0.25-0.16-0.54-0.18-0.85c-0.02-0.31-0.02-0.64,0-0.98c0.02-0.34,0.05-0.67,0.08-0.99
						c0.04-0.32,0.07-0.61,0.09-0.87c0.06-0.65,0.12-1.31,0.19-1.96c0-0.03,0-0.13,0.01-0.3c0-0.18,0.02-0.38,0.05-0.6
						c0.03-0.22,0.07-0.45,0.13-0.68c0.06-0.23,0.15-0.42,0.28-0.57c0.1-0.13,0.24-0.22,0.43-0.28c0.19-0.06,0.39-0.11,0.58-0.13
						c0.2-0.02,0.37-0.03,0.53-0.03c0.16,0,0.26,0,0.3,0.01c2.84,0.28,5.68,0.56,8.51,0.87c0.01,0,0.13,0.02,0.34,0.05
						c0.21,0.03,0.44,0.08,0.69,0.15c0.25,0.07,0.49,0.17,0.72,0.3c0.23,0.13,0.37,0.31,0.42,0.53c0,0.08,0.01,0.18,0.01,0.3
						c0,0.12,0,0.23-0.02,0.36c-0.01,0.12-0.04,0.23-0.07,0.34c-0.03,0.11-0.07,0.18-0.1,0.23c-0.07,0.09-0.17,0.15-0.32,0.2
						c-0.15,0.04-0.28,0.07-0.4,0.09c-0.13,0.01-0.3,0.02-0.5,0.03c-0.2,0.01-0.44-0.01-0.7-0.03c-0.22-0.02-0.44-0.05-0.66-0.07
						c-0.55-0.08-1.05-0.15-1.5-0.21c-0.45-0.05-0.9-0.1-1.35-0.14c-0.45-0.04-0.91-0.08-1.39-0.12c-0.48-0.04-1.04-0.09-1.68-0.14
						c-0.11-0.01-0.24-0.03-0.37-0.06c-0.13-0.03-0.27-0.04-0.4-0.04c-0.14,0-0.26,0.01-0.37,0.05c-0.11,0.03-0.18,0.1-0.22,0.2
						c-0.08,0.22-0.13,0.5-0.15,0.84c-0.02,0.34-0.05,0.63-0.11,0.87c-0.01,0.09-0.03,0.24-0.05,0.42
						c-0.03,0.19-0.04,0.38-0.06,0.59c-0.01,0.2-0.01,0.39,0.02,0.57c0.03,0.18,0.08,0.3,0.18,0.36c0.11,0.08,0.25,0.13,0.43,0.14
						c0.18,0.02,0.33,0.03,0.44,0.04c1.14,0.15,2.26,0.28,3.38,0.37c1.11,0.09,2.23,0.2,3.34,0.32
						C527.55,280.47,528.11,280.63,528.56,280.88z"/>
				</g>
			</g>
			<g>
				<path class="st5" d="M379.18,308.72c-6.22,0.33-12.44,0.72-18.65,1.17c-0.51,0.04-0.89,0.49-0.86,1.02
					c0.12,1.56,0.23,3.13,0.35,4.69c0.04,0.52,0.48,0.92,0.99,0.88c6.17-0.45,12.34-0.84,18.52-1.16c0.51-0.03,0.9-0.47,0.87-1
					c-0.08-1.57-0.16-3.13-0.24-4.7C380.13,309.1,379.69,308.7,379.18,308.72z"/>
				<path class="st5" d="M339.72,298.24c-0.18-0.24-0.46-0.24-0.58-0.23c-0.11,0.01-0.39,0.07-0.52,0.34
					c-3.2,6.75-6.32,13.51-9.36,20.29c-0.11,0.24,0.02,0.43,0.08,0.49c0.06,0.07,0.23,0.22,0.53,0.18
					c7.46-0.81,14.92-1.52,22.39-2.14c0.3-0.02,0.44-0.21,0.49-0.28c0.05-0.08,0.14-0.28-0.01-0.5
					C348.48,310.31,344.14,304.26,339.72,298.24z"/>
				<path class="st5" d="M358.25,289.33c6.87-0.51,13.74-0.94,20.62-1.3c0.07,0,0.12-0.04,0.14-0.1c0.03-0.08-0.02-0.12-0.04-0.14
					c-7.22-6.29-14.58-12.49-22.09-18.61c-0.04-0.03-0.08-0.04-0.11-0.04c-0.03,0-0.05,0.01-0.07,0.02
					c-0.09,0.04-0.08,0.11-0.08,0.13c0.49,6.63,0.98,13.27,1.48,19.9C358.09,289.28,358.16,289.34,358.25,289.33z"/>
				<path class="st5" d="M338.47,291.01c5.73-0.55,10.03-5.46,9.57-11.02c-0.46-5.56-5.61-9.69-11.49-9.12
					c-5.88,0.56-10.17,5.59-9.56,11.13C327.59,287.55,332.74,291.55,338.47,291.01z"/>
				<path class="st5" d="M378.46,295.11c-6.31,0.33-12.62,0.73-18.93,1.19c-0.52,0.04-0.91,0.49-0.87,1.02
					c0.12,1.56,0.23,3.13,0.35,4.69c0.04,0.52,0.49,0.92,1,0.88c6.26-0.46,12.53-0.85,18.79-1.18c0.52-0.03,0.91-0.47,0.89-1
					c-0.08-1.57-0.16-3.13-0.24-4.7C379.43,295.48,378.98,295.08,378.46,295.11z"/>
				<path class="st5" d="M338.6,292.33c6.47-0.62,11.33-6.16,10.83-12.45c-0.5-6.29-6.34-10.97-13-10.33
					c-6.66,0.63-11.51,6.33-10.82,12.6C326.3,288.42,332.13,292.95,338.6,292.33z M336.55,270.87c5.88-0.56,11.04,3.57,11.49,9.12
					c0.46,5.56-3.84,10.47-9.57,11.02c-5.73,0.55-10.88-3.46-11.49-9.01C326.38,276.46,330.67,271.43,336.55,270.87z"/>
				<path class="st5" d="M378.39,293.78c-6.32,0.33-12.64,0.73-18.96,1.19c-1.24,0.09-2.18,1.18-2.08,2.43
					c0.12,1.56,0.24,3.13,0.35,4.69c0.1,1.25,1.17,2.19,2.4,2.1c6.25-0.46,12.51-0.85,18.77-1.18c1.23-0.06,2.18-1.13,2.12-2.39
					c-0.08-1.57-0.16-3.13-0.24-4.7C380.7,294.69,379.64,293.72,378.39,293.78z M379.69,300.7c0.03,0.52-0.37,0.97-0.89,1
					c-6.27,0.33-12.53,0.72-18.79,1.18c-0.52,0.04-0.97-0.36-1-0.88c-0.12-1.56-0.23-3.13-0.35-4.69c-0.04-0.52,0.35-0.98,0.87-1.02
					c6.31-0.46,12.62-0.86,18.93-1.19c0.52-0.03,0.96,0.38,0.99,0.9C379.53,297.57,379.61,299.14,379.69,300.7z"/>
				<path class="st5" d="M379.11,307.4c-6.23,0.33-12.45,0.72-18.68,1.17c-1.23,0.09-2.14,1.18-2.05,2.43
					c0.12,1.56,0.24,3.13,0.35,4.69c0.09,1.25,1.16,2.19,2.37,2.1c6.16-0.45,12.32-0.84,18.49-1.16c1.21-0.06,2.15-1.13,2.09-2.38
					c-0.08-1.57-0.16-3.13-0.24-4.7C381.38,308.31,380.33,307.34,379.11,307.4z M380.4,314.32c0.03,0.52-0.36,0.97-0.87,1
					c-6.17,0.32-12.35,0.71-18.52,1.16c-0.51,0.04-0.95-0.36-0.99-0.88c-0.12-1.56-0.23-3.13-0.35-4.69
					c-0.04-0.52,0.35-0.98,0.86-1.02c6.21-0.45,12.43-0.85,18.65-1.17c0.51-0.03,0.95,0.38,0.98,0.9
					C380.24,311.19,380.32,312.76,380.4,314.32z"/>
				<path class="st5" d="M341.08,297.52c-0.43-0.59-1.22-0.91-2.07-0.83c-0.84,0.08-1.56,0.54-1.87,1.2
					c-3.19,6.75-6.3,13.52-9.34,20.31c-0.27,0.6-0.16,1.26,0.3,1.75c0.45,0.49,1.17,0.74,1.91,0.66c7.45-0.8,14.9-1.52,22.36-2.13
					c0.75-0.06,1.4-0.44,1.75-1.01c0.35-0.57,0.34-1.24-0.04-1.78C349.83,309.61,345.5,303.55,341.08,297.52z M352.75,316.89
					c-0.05,0.08-0.19,0.26-0.49,0.28c-7.47,0.62-14.93,1.33-22.39,2.14c-0.3,0.03-0.47-0.12-0.53-0.18
					c-0.06-0.07-0.19-0.25-0.08-0.49c3.04-6.78,6.16-13.54,9.36-20.29c0.13-0.27,0.41-0.32,0.52-0.34c0.11-0.01,0.4-0.01,0.58,0.23
					c4.42,6.02,8.76,12.07,13.02,18.15C352.9,316.61,352.8,316.81,352.75,316.89z"/>
				<path class="st5" d="M358.35,290.66c6.86-0.51,13.72-0.94,20.59-1.29c0.61-0.03,1.14-0.42,1.34-0.99
					c0.2-0.56,0.04-1.18-0.42-1.57c-7.22-6.29-14.58-12.5-22.09-18.63c-0.47-0.39-1.14-0.46-1.7-0.18
					c-0.56,0.28-0.88,0.82-0.83,1.42c0.5,6.63,1,13.26,1.5,19.9C356.8,290.11,357.52,290.72,358.35,290.66z M356.61,269.31
					c0-0.02-0.01-0.09,0.08-0.13c0.02-0.01,0.04-0.02,0.07-0.02c0.03,0,0.07,0.01,0.11,0.04c7.51,6.11,14.87,12.32,22.09,18.61
					c0.02,0.02,0.07,0.06,0.04,0.14c-0.02,0.06-0.07,0.09-0.14,0.1c-6.88,0.36-13.75,0.79-20.62,1.3c-0.08,0.01-0.16-0.05-0.16-0.13
					C357.59,282.57,357.1,275.94,356.61,269.31z"/>
			</g>
		</g>
	</g>
</g>
<g id="Layer_3" class="st6">
</g>
<g id="Layer_2" class="st6">
	<g class="st7">
		<path class="st8" d="M-575.4,170.86c47.81-12.85,112.74-25.85,161.81-32.4l11.25-1.45C-292.81,123.38-182.36,124.05-73,139
			l11.23,1.58c48.99,7.14,113.75,20.93,161.41,34.35"/>
		<path class="st8" d="M-571.38,188.36c47.14-12.69,111.16-25.55,159.54-32.03l11.24-1.46c108-13.48,216.92-12.86,324.76,1.85
			l11.23,1.58c48.31,7.03,112.18,20.62,159.17,33.85"/>
		<path class="st8" d="M-567.37,205.85c46.47-12.54,109.58-25.25,157.28-31.66l11.24-1.47c106.48-13.33,213.86-12.76,320.19,1.71
			l11.23,1.58c47.63,6.93,110.6,20.31,156.93,33.34"/>
		<path class="st8" d="M-563.35,223.35c45.8-12.39,108-24.95,155.01-31.3l11.24-1.47c104.95-13.18,210.79-12.66,315.61,1.57
			l11.23,1.57c46.95,6.82,109.02,19.99,154.69,32.84"/>
		<path class="st8" d="M-559.34,240.85c45.12-12.23,106.42-24.64,152.75-30.93l11.24-1.48c103.42-13.03,207.73-12.55,311.03,1.43
			l11.23,1.57c46.27,6.71,107.45,19.68,152.46,32.33"/>
		<path class="st8" d="M-555.32,258.35c44.45-12.08,104.84-24.34,150.48-30.56l11.24-1.49c101.89-12.89,204.67-12.45,306.46,1.29
			l11.23,1.57c45.59,6.6,105.87,19.37,150.22,31.82"/>
		<path class="st8" d="M-551.31,275.84c43.78-11.93,103.26-24.04,148.21-30.19l11.24-1.49c100.37-12.74,201.61-12.35,301.88,1.15
			l11.23,1.56c44.91,6.49,104.29,19.06,147.98,31.32"/>
		<path class="st8" d="M-547.29,293.34c43.11-11.77,101.67-23.74,145.95-29.83l11.24-1.5c98.84-12.59,198.55-12.25,297.3,1
			l11.23,1.56c44.23,6.38,102.71,18.75,145.75,30.81"/>
		<path class="st8" d="M-543.28,310.84c42.44-11.62,100.09-23.44,143.68-29.46l11.24-1.5c97.31-12.44,195.48-12.15,292.72,0.86
			l11.23,1.55c43.55,6.27,101.14,18.43,143.51,30.3"/>
		<path class="st8" d="M-539.26,328.34c41.77-11.47,98.51-23.14,141.42-29.09l11.24-1.51c95.79-12.29,192.42-12.05,288.15,0.72
			l11.23,1.55c42.87,6.16,99.56,18.12,141.27,29.8"/>
		<path class="st8" d="M-535.25,345.83c41.1-11.31,96.93-22.84,139.15-28.72l11.24-1.52c94.26-12.14,189.36-11.95,283.57,0.58
			l11.23,1.55c42.19,6.06,97.98,17.81,139.03,29.29"/>
		<path class="st8" d="M-531.24,363.33c40.43-11.16,95.35-22.54,136.89-28.36l11.23-1.52c92.73-11.99,186.3-11.85,278.99,0.44
			l11.23,1.54c41.51,5.95,96.41,17.5,136.8,28.79"/>
		<path class="st8" d="M-527.22,380.83c39.75-11.01,93.77-22.24,134.62-27.99l11.23-1.53c91.21-11.84,183.24-11.74,274.42,0.3
			l11.23,1.54c40.84,5.84,94.83,17.19,134.56,28.28"/>
		<path class="st8" d="M-523.21,398.33c39.08-10.85,92.19-21.94,132.35-27.62l11.23-1.54c89.68-11.7,180.17-11.64,269.84,0.16
			l11.23,1.54c40.16,5.73,93.25,16.88,132.32,27.77"/>
		<path class="st8" d="M-519.19,415.82c38.41-10.7,90.61-21.63,130.09-27.25l11.23-1.54c88.15-11.55,177.11-11.54,265.26,0.01
			l11.23,1.53c39.48,5.62,91.68,16.56,130.09,27.27"/>
		<path class="st8" d="M-515.18,433.32c37.74-10.55,89.03-21.33,127.82-26.88l11.23-1.55c86.62-11.4,174.05-11.44,260.68-0.13
			l11.24,1.53c38.8,5.51,90.1,16.25,127.85,26.76"/>
		<path class="st8" d="M-511.16,450.82c37.07-10.39,87.45-21.03,125.56-26.52l11.23-1.56c85.1-11.25,170.99-11.34,256.11-0.27
			l11.24,1.52c38.12,5.4,88.52,15.94,125.61,26.25"/>
		<path class="st8" d="M-507.15,468.31c36.4-10.24,85.87-20.73,123.29-26.15l11.23-1.56c83.57-11.1,167.93-11.24,251.53-0.41
			l11.24,1.52c37.44,5.29,86.95,15.63,123.38,25.75"/>
	</g>
	<g class="st7">
		<polyline class="st9" points="-659.01,-39.61 -560.21,315.54 -554.89,334.66 -212.65,1564.03 		"/>
		<line class="st9" x1="140.74" y1="-37.67" x2="-305.8" y2="1568.36"/>
		<line class="st9" x1="-258.64" y1="-54" x2="-258.64" y2="1576"/>
		<line class="st9" x1="-60.56" y1="-37.33" x2="-282.95" y2="1577.43"/>
		<line class="st9" x1="-458.18" y1="-52.54" x2="-235.79" y2="1562.21"/>
		<path class="st9" d="M-327.69,276.85c6.34,46-25.81,88.44-71.81,94.78c-46,6.35-88.44-25.8-94.78-71.81
			c-6.34-46,25.8-88.44,71.81-94.78C-376.47,198.69-334.03,230.84-327.69,276.85z"/>
		<path class="st9" d="M-21.16,296.65c-6.25,46.02-48.62,78.25-94.64,72c-46.02-6.25-78.25-48.62-72-94.64
			c6.25-46.01,48.62-78.25,94.64-72C-47.15,208.27-14.91,250.64-21.16,296.65z"/>
	</g>
</g>
</svg>
