{
	"asset":{
		"generator":"Khronos glTF Blender I/O v3.6.28",
		"version":"2.0"
	},
	"scene":0,
	"scenes":[
		{
			"name":"Scene",
			"nodes":[
				13,
				14
			]
		}
	],
	"nodes":[
		{
			"name":"Lamp.001"
		},
		{
			"children":[
				0
			],
			"name":"Lamp",
			"rotation":[
				0.16907529532909393,
				0.27217087149620056,
				0.7558793425559998,
				0.5709494352340698
			],
			"scale":[
				0.9999976754188538,
				0.9999959468841553,
				0.9999961256980896
			],
			"translation":[
				4.076250076293945,
				3.7833399772644043,
				1.7045700550079346
			]
		},
		{
			"name":"Lamp.003"
		},
		{
			"children":[
				2
			],
			"name":"Lamp.002",
			"rotation":[
				0.16907529532909393,
				0.27217087149620056,
				0.7558793425559998,
				0.5709494352340698
			],
			"scale":[
				0.9999976754188538,
				0.9999959468841553,
				0.9999961256980896
			],
			"translation":[
				-5.614459991455078,
				-1.8870899677276611,
				2.788450002670288
			]
		},
		{
			"mesh":0,
			"name":"Starbuckscup1_0"
		},
		{
			"children":[
				4
			],
			"name":"Starbuckscup1",
			"scale":[
				0.518310010433197,
				0.518310010433197,
				0.518310010433197
			],
			"translation":[
				0,
				1.784809947013855,
				2.7274599075317383
			]
		},
		{
			"name":"Sun.001"
		},
		{
			"children":[
				6
			],
			"name":"Sun",
			"rotation":[
				-0.22753874957561493,
				-0.05713815987110138,
				0.7228561043739319,
				0.6499541997909546
			],
			"translation":[
				-4.821229934692383,
				3.8209500312805176,
				14.939299583435059
			]
		},
		{
			"name":"Sun.003"
		},
		{
			"children":[
				8
			],
			"name":"Sun.002",
			"rotation":[
				0.3856821060180664,
				0.3429580628871918,
				-0.7331263422966003,
				0.44289371371269226
			],
			"scale":[
				1.0000051259994507,
				1,
				1.0000048875808716
			],
			"translation":[
				-3.8326900005340576,
				-8.455209732055664,
				6.692759990692139
			]
		},
		{
			"name":"Sun.005"
		},
		{
			"children":[
				10
			],
			"name":"Sun.004",
			"rotation":[
				0.12043027579784393,
				0.5756848454475403,
				-0.38449305295944214,
				0.7115115523338318
			],
			"scale":[
				0.9999971389770508,
				0.9999967217445374,
				1
			],
			"translation":[
				6.627019882202148,
				-5.965260028839111,
				5.030409812927246
			]
		},
		{
			"children":[
				1,
				3,
				5,
				7,
				9,
				11
			],
			"name":"Root"
		},
		{
			"children":[
				12
			],
			"name":"Sketchfab_model",
			"rotation":[
				-0.70710688829422,
				0,
				0,
				0.7071066498756409
			]
		},
		{
			"mesh":1,
			"name":"Cube"
		}
	],
	"materials":[
		{
			"doubleSided":true,
			"name":"starbuckspapercup",
			"pbrMetallicRoughness":{
				"baseColorTexture":{
					"index":0
				},
				"metallicFactor":0
			}
		},
		{
			"doubleSided":true,
			"name":"Material",
			"pbrMetallicRoughness":{
				"baseColorFactor":[
					0.800000011920929,
					0.800000011920929,
					0.800000011920929,
					1
				],
				"metallicFactor":0,
				"roughnessFactor":0.5
			}
		}
	],
	"meshes":[
		{
			"name":"Starbuckscup1_0",
			"primitives":[
				{
					"attributes":{
						"POSITION":0,
						"NORMAL":1,
						"TEXCOORD_0":2
					},
					"indices":3,
					"material":0
				}
			]
		},
		{
			"name":"Cube",
			"primitives":[
				{
					"attributes":{
						"POSITION":4,
						"NORMAL":5,
						"TEXCOORD_0":6
					},
					"indices":7,
					"material":1
				}
			]
		}
	],
	"textures":[
		{
			"sampler":0,
			"source":0
		}
	],
	"images":[
		{
			"mimeType":"image/png",
			"name":"starbuckspapercup_baseColor",
			"uri":"starbuckspapercup_baseColor.png"
		}
	],
	"accessors":[
		{
			"bufferView":0,
			"componentType":5126,
			"count":4751,
			"max":[
				4.243589878082275,
				0.8974699974060059,
				5.483580112457275
			],
			"min":[
				-4.282879829406738,
				-7.629000186920166,
				-5.235770225524902
			],
			"type":"VEC3"
		},
		{
			"bufferView":1,
			"componentType":5126,
			"count":4751,
			"type":"VEC3"
		},
		{
			"bufferView":2,
			"componentType":5126,
			"count":4751,
			"type":"VEC2"
		},
		{
			"bufferView":3,
			"componentType":5123,
			"count":26880,
			"type":"SCALAR"
		},
		{
			"bufferView":4,
			"componentType":5126,
			"count":24,
			"max":[
				1,
				1,
				1
			],
			"min":[
				-1,
				-1,
				-1
			],
			"type":"VEC3"
		},
		{
			"bufferView":5,
			"componentType":5126,
			"count":24,
			"type":"VEC3"
		},
		{
			"bufferView":6,
			"componentType":5126,
			"count":24,
			"type":"VEC2"
		},
		{
			"bufferView":7,
			"componentType":5123,
			"count":36,
			"type":"SCALAR"
		}
	],
	"bufferViews":[
		{
			"buffer":0,
			"byteLength":57012,
			"byteOffset":0,
			"target":34962
		},
		{
			"buffer":0,
			"byteLength":57012,
			"byteOffset":57012,
			"target":34962
		},
		{
			"buffer":0,
			"byteLength":38008,
			"byteOffset":114024,
			"target":34962
		},
		{
			"buffer":0,
			"byteLength":53760,
			"byteOffset":152032,
			"target":34963
		},
		{
			"buffer":0,
			"byteLength":288,
			"byteOffset":205792,
			"target":34962
		},
		{
			"buffer":0,
			"byteLength":288,
			"byteOffset":206080,
			"target":34962
		},
		{
			"buffer":0,
			"byteLength":192,
			"byteOffset":206368,
			"target":34962
		},
		{
			"buffer":0,
			"byteLength":72,
			"byteOffset":206560,
			"target":34963
		}
	],
	"samplers":[
		{
			"magFilter":9729,
			"minFilter":9987
		}
	],
	"buffers":[
		{
			"byteLength":206632,
			"uri":"papercup.bin"
		}
	]
}
