{
	"asset":{
		"generator":"Khronos glTF Blender I/O v3.6.28",
		"version":"2.0"
	},
	"scene":0,
	"scenes":[
		{
			"name":"Scene",
			"nodes":[
				13
			]
		}
	],
	"nodes":[
		{
			"name":"Lamp.001"
		},
		{
			"children":[
				0
			],
			"name":"Lamp",
			"rotation":[
				0.16907528042793274,
				0.27217087149620056,
				0.7558793425559998,
				0.5709494352340698
			],
			"scale":[
				0.9999977350234985,
				0.9999960064888,
				0.9999961853027344
			],
			"translation":[
				4.076250076293945,
				3.7833402156829834,
				1.7045701742172241
			]
		},
		{
			"name":"Lamp.003"
		},
		{
			"children":[
				2
			],
			"name":"Lamp.002",
			"rotation":[
				0.16907528042793274,
				0.27217087149620056,
				0.7558793425559998,
				0.5709494352340698
			],
			"scale":[
				0.9999977350234985,
				0.9999960064888,
				0.9999961853027344
			],
			"translation":[
				-5.614459991455078,
				-1.8870900869369507,
				2.788450002670288
			]
		},
		{
			"mesh":0,
			"name":"Starbuckscup1_0",
			"translation":[
				0,
				0,
				1.9293471574783325
			]
		},
		{
			"children":[
				4
			],
			"name":"Starbuckscup1",
			"scale":[
				0.518310010433197,
				0.518310010433197,
				0.518310010433197
			],
			"translation":[
				0,
				1.7848100662231445,
				2.7274599075317383
			]
		},
		{
			"name":"Sun.001"
		},
		{
			"children":[
				6
			],
			"name":"Sun",
			"rotation":[
				-0.22753873467445374,
				-0.05713815987110138,
				0.7228561043739319,
				0.6499541997909546
			],
			"translation":[
				-4.821229934692383,
				3.8209502696990967,
				14.939300537109375
			]
		},
		{
			"name":"Sun.003"
		},
		{
			"children":[
				8
			],
			"name":"Sun.002",
			"rotation":[
				0.3856821656227112,
				0.34295809268951416,
				-0.7331263422966003,
				0.44289377331733704
			],
			"scale":[
				1.0000051259994507,
				1,
				1.0000048875808716
			],
			"translation":[
				-3.8326900005340576,
				-8.455209732055664,
				6.692760467529297
			]
		},
		{
			"name":"Sun.005"
		},
		{
			"children":[
				10
			],
			"name":"Sun.004",
			"rotation":[
				0.12043029069900513,
				0.5756848454475403,
				-0.3844930827617645,
				0.711511492729187
			],
			"scale":[
				0.9999972581863403,
				0.9999967813491821,
				1
			],
			"translation":[
				6.627019882202148,
				-5.965260028839111,
				5.030409812927246
			]
		},
		{
			"children":[
				1,
				3,
				5,
				7,
				9,
				11
			],
			"name":"Root"
		},
		{
			"children":[
				12
			],
			"name":"Sketchfab_model",
			"rotation":[
				-0.70710688829422,
				0,
				0,
				0.7071066498756409
			]
		}
	],
	"materials":[
		{
			"doubleSided":true,
			"name":"starbuckspapercup",
			"pbrMetallicRoughness":{
				"baseColorTexture":{
					"index":0
				},
				"metallicFactor":0
			}
		}
	],
	"meshes":[
		{
			"name":"Starbuckscup1_0",
			"primitives":[
				{
					"attributes":{
						"POSITION":0,
						"NORMAL":1,
						"TEXCOORD_0":2
					},
					"indices":3,
					"material":0
				}
			]
		}
	],
	"textures":[
		{
			"sampler":0,
			"source":0
		}
	],
	"images":[
		{
			"mimeType":"image/png",
			"name":"starbuckspapercup_baseColor",
			"uri":"starbuckspapercup_baseColor.png"
		}
	],
	"accessors":[
		{
			"bufferView":0,
			"componentType":5126,
			"count":4751,
			"max":[
				4.243589878082275,
				0.8974711894989014,
				1.6248853206634521
			],
			"min":[
				-4.282879829406738,
				-7.62899923324585,
				-9.094465255737305
			],
			"type":"VEC3"
		},
		{
			"bufferView":1,
			"componentType":5126,
			"count":4751,
			"type":"VEC3"
		},
		{
			"bufferView":2,
			"componentType":5126,
			"count":4751,
			"type":"VEC2"
		},
		{
			"bufferView":3,
			"componentType":5123,
			"count":26880,
			"type":"SCALAR"
		}
	],
	"bufferViews":[
		{
			"buffer":0,
			"byteLength":57012,
			"byteOffset":0,
			"target":34962
		},
		{
			"buffer":0,
			"byteLength":57012,
			"byteOffset":57012,
			"target":34962
		},
		{
			"buffer":0,
			"byteLength":38008,
			"byteOffset":114024,
			"target":34962
		},
		{
			"buffer":0,
			"byteLength":53760,
			"byteOffset":152032,
			"target":34963
		}
	],
	"samplers":[
		{
			"magFilter":9729,
			"minFilter":9987
		}
	],
	"buffers":[
		{
			"byteLength":205792,
			"uri":"papercup18.bin"
		}
	]
}
