<?xml version="1.0" encoding="utf-8"?>
<!-- Generator: Adobe Illustrator 27.1.0, SVG Export Plug-In . SVG Version: 6.00 Build 0)  -->
<svg version="1.1" id="레이어_1" xmlns="http://www.w3.org/2000/svg" xmlns:xlink="http://www.w3.org/1999/xlink" x="0px"
	 y="0px" viewBox="0 0 1563.92 1071.5" style="enable-background:new 0 0 1563.92 1071.5;" xml:space="preserve">
<style type="text/css">
	.st0{fill:#240E0A;}
	.st1{fill:none;stroke:#221E1F;stroke-width:0.216;stroke-miterlimit:2.6131;}
	.st2{fill:#F9CFA6;}
	.st3{font-family:'Pretendard-Regular-KSCpc-EUC-H';}
	.st4{font-size:10px;}
</style>
<rect x="338.81" y="242.55" class="st0" width="802.67" height="565.33"/>
<path class="st1" d="M394.27,367.77c0.14-0.1,0.3-0.17,0.46-0.22"/>
<g>
	<g>
		<path class="st2" d="M582,473.51c4.27-0.56,8.29-1.42,11.88-2.46c0.08,0.62,0.16,1.23,0.22,1.85c0.39,4.13,0.33,8.39-0.61,12.44
			c-1.73,7.47-6.46,12.55-13.63,15.06c7.01-1.49,12.28-5.41,15.37-11.93c2.72-5.75,3.69-12.56,3.44-19.04
			c7.41-2.87,12.02-6.61,11.56-10.11c-0.75-5.68-14.6-8.54-30.94-6.38c-10.65,1.4-19.73,4.59-24.55,8.22
			c4.29-2.8,11.82-5.26,20.57-6.42c14.05-1.85,25.93,0.37,26.53,4.96c0.61,4.59-10.29,9.81-24.34,11.66
			c-13.69,1.81-25.31-0.26-26.46-4.61c0,0.13,0.01,0.25,0.02,0.38C551.81,472.8,565.66,475.66,582,473.51z"/>
		<path class="st2" d="M575.07,500.3c-9.04-4.58-15.29-11.82-19.3-21.13C556.97,489.04,565.24,498.5,575.07,500.3z"/>
		<path class="st2" d="M549.08,488.13c-4.02-2.09-8.43-6.1-7.09-11.22c1.35-5.15,7.75-2.02,9.48,1.09c-0.2-4.78-5.58-8.22-9.95-6.16
			c-3.5,1.65-4.58,5.78-4.06,9.36c0.9,6.12,5.79,9.76,11.22,11.83c1.41,0.55,13.04,4.26,11.38,6.81c-0.58,0.74-2.04,1.26-2.96,0.77
			c0.04,1.39,3.55,0.75,4.15,0.15c0.98-0.98,0.82-2.59,0.26-3.73c-0.13-0.26-0.27-0.52-0.42-0.76c6.71,7.58,15.85,11.77,25.29,10.53
			c14.69-1.94,25.28-16.39,25.98-33.89c0.08-2.08,0.02-4.21-0.18-6.37c-2.13,1.93-5.06,3.67-8.51,5.16
			c-0.93,15.89-9.77,28.69-22.1,30.32c-13.9,1.83-27.2-11.21-30.76-29.57c-0.03-0.03-0.07-0.06-0.1-0.09
			c0.02,0.18,0.04,0.36,0.06,0.54c1.08,8.15,4.15,15.42,8.5,21.14C556.46,491.37,552.28,489.8,549.08,488.13z"/>
		<path class="st2" d="M553.56,426.3c-0.37,5.12,2.98,9.53,7.29,11.9c4.2,2.09,10.4,1.9,12.83,6.54c0-0.02-0.01-0.04-0.02-0.06
			c0.47,1.25,0.7,2.57,0.76,3.8c-0.08,0.82-0.57,1.54-0.42,2.38c0.18-1.02,1.07-1.72,1.29-2.76c0.27-1.23,0.28-2.41,0.15-3.67
			c-0.38-2.03-1.59-3.77-3.2-5.03c-4.92-3.88-15.33-4.78-14.34-13.16c0.89-7.52,20.51-16.38,12.07-24.68
			c2.61,4.76-2.38,8.77-5.79,11.33C559.69,416.28,554.04,420.12,553.56,426.3z"/>
		<path class="st2" d="M571.37,435.47c2.41,1,4.68,2.05,6.13,4.35c1.42,2.26,1.73,4.97,2.12,7.55c3.09-5.3,1.37-11.86-4.02-14.8
			c-1.96-1.07-4.06-1.48-5.85-2.89c-2.48-2.07-3.21-4.71-1.44-7.53C561.16,424.68,566.35,433.79,571.37,435.47z"/>
		<path class="st2" d="M624.78,498.06c0.44,6.26-10.11,10.06-14.61,11.75c-7.83,2.95-16.2,4.77-24.5,5.74
			c-7.81,0.91-15.72,1.37-23.56,0.59c-4.89-0.49-15.75-1.38-17.11-7.48c-0.46-5.11,5.67-8.95,9.61-11.45
			c-4.46,1.85-10.92,4.88-11.69,10.3c-0.47,3.85,2.61,6.76,5.77,8.46c11.33,6.09,26.04,4.95,38.34,3.67
			c7.2-1.05,14.32-2.58,21.16-5.1c5.47-2.01,11.3-4.68,15.44-8.9c2.54-2.59,4.49-6.44,2.49-9.87c-2.6-4.44-8.95-5.57-13.59-6.19
			C616.64,490.85,624.31,493.13,624.78,498.06z"/>
		<path class="st2" d="M566.14,513.46c6.49,1.16,13.49,0.24,19.99-0.37c6.85-1.16,13.76-2.38,20.18-5.14
			c3.75-1.6,12.85-5.05,11.9-10.45c0.06,5.12-8.9,7.46-12.57,8.75c-6.38,2.23-13.12,3.28-19.77,4.33
			c-6.72,0.72-13.54,1.45-20.31,0.95c-3.87-0.29-13.12-0.23-14.39-5.18C551.68,512.03,561.98,512.86,566.14,513.46z"/>
	</g>
	<g>
		<g>
			<path class="st2" d="M553.43,557.32c1.93-0.59,3.73-1.8,4.86-3.49c0.68-1.01,0.48-1.58,0.33-2.73c-1.79,2.72-4.03,5.17-7.63,4.37
				c-2.75-0.61-4.37-3.06-5.06-5.63c-0.73-2.73-0.97-6.3,0.43-8.87c1.38-2.54,4.71-3.35,7.21-1.97c1.25,0.69,2.19,1.85,2.8,3.14
				c0.12,0.26,0.43,1.43,0.67,1.4c0.12-0.02,0.38,0.03,0.36-0.13c-0.18-1.36-0.36-2.73-0.54-4.09c-0.08-0.63,0.05-3.12-0.87-2.79
				c0.2,1.53-1.9,1-2.66,0.92c-1.22-0.13-2.46-0.25-3.69-0.09c-8.08,1.07-11.08,11.27-5.99,17.27
				C546.03,557.45,549.94,558.38,553.43,557.32z"/>
			<path class="st2" d="M570.2,555.23c12.57-1.53,9.91-21.88-2.6-20.23C555.26,536.63,557.87,556.71,570.2,555.23z M567.75,536.07
				c4.49-0.59,5.92,5.11,6.36,8.48c0.47,3.53,0.61,8.87-3.99,9.54c-4.63,0.69-5.91-5.13-6.36-8.56
				C563.32,542.2,563.39,536.65,567.75,536.07z"/>
			<path class="st2" d="M588.57,542.96c1.17-0.15,2.3-0.34,3.05,0.84c0.08,0.13,0.76,1.43,0.66,0.64c-0.06-0.44-0.11-0.87-0.17-1.31
				c-0.16-1.19-0.31-2.38-0.47-3.57c-0.25-1.9-0.53,0.96-0.99,1.56c-0.63,0.82-2.03,0.73-2.95,0.86c-0.66,0.09-1.63,0.59-1.73-0.19
				c-0.14-1.06-0.28-2.12-0.42-3.18c-0.17-1.27-0.34-2.54-0.5-3.81c-0.11-0.8-0.22-0.75,0.6-0.86c1.12-0.15,2.24-0.3,3.36-0.44
				c0.93-0.12,1.68,0.42,2.18,1.17c0.32,0.48,0.57,2.1,1.13,1.89c-0.13-0.8-0.26-1.6-0.39-2.4c-0.05-0.33-0.07-1.87-0.34-2.08
				c-0.39-0.31-2.91,0.38-3.38,0.45c-3.22,0.43-6.45,0.85-9.67,1.28c-0.11,0.77,0.67,0.29,1.14,0.36c0.86,0.13,1.35,1.1,1.45,1.87
				c0.09,0.7,0.19,1.4,0.28,2.11c0.4,3.06,0.81,6.12,1.21,9.17c0.14,1.07,0.28,2.13,0.42,3.2c0.07,0.51,0.09,1.01-0.11,1.5
				c-0.2,0.48-0.59,0.86-1.08,1.04c0.1-0.04-0.76,0.15-0.75,0.14c-0.24,0.72,1.96,0.13,2.28,0.09c1.57-0.21,3.14-0.41,4.71-0.62
				c0.09-0.01,2.23-0.16,1.62-0.6c-0.41-0.3-1.24,0.18-1.81-0.34c-0.58-0.53-0.79-1.38-0.88-2.12c-0.27-2.04-0.54-4.08-0.81-6.12
				C586.12,543.04,588.17,543.01,588.57,542.96z"/>
			<path class="st2" d="M606.21,532.27c-0.05-0.33-0.07-1.87-0.34-2.08c-0.39-0.31-2.91,0.38-3.38,0.45
				c-3.22,0.42-6.45,0.85-9.67,1.28c-0.11,0.77,0.68,0.29,1.14,0.36c0.86,0.13,1.34,1.1,1.45,1.87c0.09,0.7,0.19,1.4,0.28,2.11
				c0.4,3.06,0.81,6.12,1.21,9.17c0.14,1.07,0.28,2.13,0.42,3.2c0.07,0.51,0.09,1.01-0.11,1.5c-0.2,0.48-0.59,0.86-1.08,1.04
				c0.1-0.04-0.76,0.15-0.75,0.14c-0.24,0.72,1.96,0.13,2.28,0.09c1.57-0.21,3.14-0.41,4.71-0.62c0.09-0.01,2.23-0.16,1.62-0.6
				c-0.41-0.3-1.23,0.18-1.81-0.34c-0.58-0.53-0.79-1.38-0.88-2.12c-0.27-2.04-0.54-4.08-0.81-6.12c-0.06-0.42,1.99-0.46,2.39-0.51
				c1.17-0.15,2.3-0.34,3.05,0.84c0.08,0.13,0.76,1.43,0.66,0.64c-0.06-0.44-0.11-0.87-0.17-1.31c-0.16-1.19-0.31-2.38-0.47-3.57
				c-0.25-1.9-0.53,0.96-0.99,1.56c-0.63,0.82-2.03,0.73-2.95,0.86c-0.66,0.09-1.63,0.59-1.73-0.19c-0.14-1.06-0.28-2.12-0.42-3.18
				c-0.17-1.27-0.34-2.54-0.5-3.81c-0.11-0.8-0.22-0.75,0.6-0.86c1.12-0.15,2.24-0.3,3.36-0.44c0.93-0.12,1.68,0.42,2.18,1.17
				c0.32,0.48,0.57,2.1,1.13,1.89C606.47,533.87,606.34,533.07,606.21,532.27z"/>
			<path class="st2" d="M622.99,543.24c-0.49-0.06-0.64,1.92-0.92,2.45c-0.97,1.84-6.08,3.28-6.5,0.13c-0.26-2-0.53-4-0.79-5.99
				c-0.03-0.19,2.39-0.41,2.7-0.45c1.23-0.16,2.44-0.1,2.95,1.29c0.57,1.53,0.3-0.98,0.25-1.37c-0.15-1.16-0.31-2.32-0.46-3.48
				c-0.2-1.49-0.66,1.57-1.23,2.06c-0.68,0.58-2.17,0.5-3,0.61c-0.86,0.11-1.31,0.51-1.43-0.38c-0.15-1.1-0.29-2.2-0.44-3.31
				c-0.17-1.26-0.33-2.52-0.5-3.78c-0.1-0.79-0.21-0.74,0.6-0.84c1.12-0.15,2.24-0.3,3.36-0.44c0.93-0.12,1.68,0.42,2.18,1.17
				c0.32,0.48,0.57,2.1,1.13,1.89c-0.13-0.8-0.26-1.6-0.39-2.4c-0.05-0.33-0.07-1.87-0.34-2.08c-0.39-0.31-2.91,0.38-3.38,0.45
				c-3.22,0.42-6.45,0.85-9.67,1.28c-0.08,0.58,0.24,0.43,0.66,0.38c0.69-0.09,1.23,0.24,1.58,0.83c0.29,0.5,0.35,1.04,0.43,1.6
				c0.25,1.88,0.5,3.76,0.74,5.63c0.3,2.28,0.6,4.57,0.9,6.85c0.19,1.45,0.7,3.77-1.4,4.05c0.11-0.1-0.76,0.56-0.28,0.49
				c0.16-0.02,0.31-0.04,0.47-0.06c0.76-0.1,1.53-0.2,2.3-0.3c2.3-0.3,4.61-0.61,6.91-0.91c0.57-0.08,3.56-0.05,3.93-0.52
				c0.24-0.31-0.15-2.03-0.18-2.42C623.11,544.85,623.05,544.04,622.99,543.24z"/>
			<path class="st2" d="M624.56,547.91c0.16-0.02,0.31-0.04,0.47-0.06c0.76-0.1,1.53-0.2,2.3-0.3c2.3-0.3,4.61-0.61,6.91-0.91
				c0.57-0.08,3.56-0.05,3.93-0.52c0.24-0.31-0.15-2.03-0.18-2.42c-0.06-0.81-0.12-1.61-0.18-2.42c-0.49-0.06-0.64,1.92-0.92,2.45
				c-0.97,1.84-6.08,3.28-6.5,0.13c-0.26-2-0.53-4-0.79-5.99c-0.03-0.19,2.39-0.41,2.7-0.45c1.23-0.16,2.44-0.1,2.95,1.29
				c0.57,1.53,0.3-0.98,0.25-1.37c-0.15-1.16-0.31-2.32-0.46-3.48c-0.2-1.49-0.66,1.57-1.23,2.06c-0.68,0.58-2.17,0.5-3,0.61
				c-0.86,0.11-1.31,0.51-1.43-0.38c-0.15-1.1-0.29-2.2-0.44-3.31c-0.17-1.26-0.33-2.52-0.5-3.78c-0.1-0.79-0.21-0.74,0.6-0.84
				c1.12-0.15,2.24-0.3,3.36-0.44c0.93-0.12,1.68,0.42,2.18,1.17c0.32,0.48,0.57,2.1,1.13,1.89c-0.13-0.8-0.26-1.6-0.39-2.4
				c-0.05-0.33-0.07-1.87-0.34-2.08c-0.39-0.31-2.91,0.38-3.38,0.45c-3.22,0.42-6.45,0.85-9.67,1.28c-0.08,0.58,0.24,0.43,0.66,0.38
				c0.69-0.09,1.23,0.24,1.58,0.83c0.29,0.5,0.35,1.04,0.43,1.6c0.25,1.88,0.5,3.76,0.74,5.63c0.3,2.28,0.6,4.57,0.9,6.85
				c0.19,1.45,0.7,3.77-1.4,4.05C624.95,547.31,624.08,547.97,624.56,547.91z"/>
		</g>
		<g>
			<path class="st2" d="M573.05,572.04c3.21-1.31,3.95-10.54-0.22-9.23c-1.99,0.63-2.09,3.7-2.18,5.38
				c-0.11,2.08,0.03,4.17-0.18,6.24c-1.64-0.78-4.17-1.41-4.67,1.08c-0.44,2.18,1.56,3.06,3.31,2.12c0.47-0.25,1.46-1.55,1.78-1.4
				c0.82,0.37,1.63,0.91,2.55,1.01c1.12,0.13,2.86-2.26,1.76-2.65c-0.27,0.04-0.34,1.36-1.02,1.45c-0.82,0.11-1.62-0.44-2.31-0.81
				c-0.57-0.31-0.8-0.2-0.66-0.86c0.11-0.49,0.19-0.99,0.25-1.49c0.12-0.97,0.18-1.95,0.19-2.93c0.02-1.76-0.23-4.27,0.7-5.85
				c1.02-1.76,2.31,0.12,2.46,1.27c0.19,1.45,0.07,3-0.5,4.35C574.03,570.43,572.63,571.41,573.05,572.04z M568.48,577.29
				c-0.86,0.33-2.18,0.23-2.32-0.89c-0.28-2.13,2.28-1.8,3.43-1.02C570.56,576.04,569.25,576.99,568.48,577.29z"/>
			<path class="st2" d="M578.9,576.21c1.18-0.76,1.5-2.35,1.32-3.64c-0.16-1.23-1.26-2.68-2.66-2.04c-1.33,0.6-1.78,2.45-1.61,3.77
				C576.14,575.75,577.37,577.2,578.9,576.21z M577.7,571.14c1.1-0.97,2.58,4.49,0.58,4.75
				C576.58,576.11,576.85,571.88,577.7,571.14z"/>
			<path class="st2" d="M581.73,575.63c0.83,1.35,2.69-1.03,2.99-1.77c0.34-0.81,1.29-3.89-0.15-4.28c-1.81-0.49-0.18,2.39,0.1,1.56
				c0.15,1.13-0.5,3.47-1.87,3.65c-0.59,0.08-0.19-3.81-0.4-4.41c-0.54-1.57-2.93,1.98-1.49,2.46c0.04-0.17,0.23-1.32,0.51-1.36
				C581.56,571.46,581.45,575.18,581.73,575.63z"/>
			<path class="st2" d="M587.1,572.68C587.56,572.6,587.04,572.27,587.1,572.68L587.1,572.68z"/>
			<path class="st2" d="M589.64,569.96c-0.75-1.88-2.81-0.46-3.34,0.75c-0.55,1.27-0.63,4.08,1.16,4.5
				c0.96,0.23,3.18-1.77,2.08-2.21c-0.45,1.13-2.07,1.86-2.34,0.22C588.84,573.2,590.28,571.58,589.64,569.96z M587.1,572.68
				c-0.1-0.79-0.02-1.68,0.39-2.38c0.28-0.47,0.92-0.8,1.17-0.11C589.11,571.38,588.26,572.46,587.1,572.68z"/>
			<path class="st2" d="M605.48,560.62c-0.11-0.83-0.69-2.07-1.71-1.4c-0.92,0.6-1.23,1.91-1.47,2.9c-0.46,1.91-0.56,3.87-0.96,5.79
				c0.04-1.28,1.09-9.02-1.3-8.71c-1.42,0.19-1.82,3.2-2.03,4.24c-0.35,1.73-0.59,3.5-0.79,5.26c0.12-1.51,0.45-10.99-3.37-8.5
				c-3.18,2.08-1.34,8.75,0.12,11.32c0.48-0.43-0.77-2.74-0.94-3.42c-0.37-1.5-0.52-3.03-0.32-4.56c0.13-1.02,0.42-2.53,1.52-2.95
				c1.34-0.51,1.88,1.18,2.02,2.18c0.49,3.74-0.16,7.55-0.53,11.28c0.44-0.06,1.22,0.08,1.29-0.43c0.16-1.26,0.27-2.52,0.41-3.78
				c0.19-1.69,0.43-3.37,0.72-5.04c0.24-1.4,0.41-3.25,1.28-4.43c0.89-1.2,1.06,1.55,1.08,2.01c0.05,1.66-0.04,3.34-0.16,5
				c-0.15,2.06-0.41,4.1-0.64,6.15c1.12-0.15,1.39,0.05,1.52-1.09c0.19-1.62,0.37-3.25,0.61-4.86c0.06-0.39,1.52-8.31,2.45-7.46
				c0.64,0.59,0.18,2.84,0.13,3.55c-0.16,2.02-0.4,4.03-0.47,6.05c-0.02,0.77-0.21,3.5,1.16,3.32c0.92-0.12,1.92-2.64,1.03-3.16
				c-0.09,0.41-0.88,3.03-1.1,1.38c-0.1-1.01-0.04-2.03,0.04-3.04C605.26,565.71,605.81,563.12,605.48,560.62z"/>
			<path class="st2" d="M608.45,566.45c-1.33,0.6-1.78,2.45-1.61,3.77c0.19,1.46,1.42,2.91,2.95,1.92c1.17-0.76,1.49-2.35,1.32-3.64
				C610.95,567.26,609.85,565.81,608.45,566.45z M609.17,571.81c-1.7,0.22-1.42-4.01-0.58-4.75
				C609.69,566.09,611.17,571.55,609.17,571.81z"/>
			<path class="st2" d="M614.99,567.57c0.65-0.09,0.46-1.15,0.24-1.49c-1.03-1.61-2.93,0.69-3.26,1.67c-0.4,1.18-0.4,3.74,1.22,4.08
				c0.97,0.2,3.02-1.9,1.94-2.4c-0.35,1.73-1.96,1.72-2.19,0c-0.12-0.92,0.03-3.76,1.61-3.23
				C614.29,566.55,614.26,567.66,614.99,567.57z"/>
			<path class="st2" d="M620.84,568.31c-0.08,0.29-0.29,1.3-0.64,1.34c-0.34,0.04-0.1-4.23-0.09-4.59
				c-0.33,0.04-0.66,0.09-0.99,0.13c-0.01,0.39-0.03,0.78-0.04,1.16c-0.26-0.9-1.05-1.59-1.95-0.94c-0.82,0.59-1.1,1.79-1.13,2.73
				c-0.02,0.98,0.13,2.32,1,2.94c1.09,0.79,2.02-0.66,2.08-1.62C619.11,573.04,621.97,569.02,620.84,568.31z M618.1,570.36
				c-1.39,0.18-1.33-4.22,0.04-4.4C619.43,565.79,619.38,570.19,618.1,570.36z"/>
			<path class="st2" d="M634.13,575.86l-34.71,4.58c-0.58-1.59-2.19-2.62-3.94-2.39c-1.74,0.23-3.04,1.65-3.18,3.33l-34.71,4.58
				l0.21,1.58l34.71-4.58c0.58,1.59,2.19,2.62,3.94,2.39c1.74-0.23,3.04-1.64,3.18-3.33l34.71-4.58L634.13,575.86z"/>
			<path class="st2" d="M558.16,592.08c-1.3-0.2-2.61-0.42-3.91-0.66c0.07,0.5,0.14,0.99,0.21,1.49c0.65,0.11,1.29,0.21,1.94,0.31
				c0.99,7.01,1.98,14.02,2.97,21.03c-2.58-7.38-5.18-15.14-7.8-23.35c-1.83-0.38-3.65-0.79-5.46-1.25
				c0.07,0.54,0.14,1.09,0.22,1.64c0.29,0.07,0.59,0.13,0.88,0.2c1.19,8.95,2.38,17.9,3.57,26.84c-0.29,0.03-0.58,0.06-0.87,0.09
				c0.07,0.55,0.14,1.09,0.22,1.64c1.27-0.16,2.55-0.32,3.82-0.48c-0.07-0.52-0.14-1.04-0.21-1.56c-0.63,0.07-1.27,0.13-1.9,0.2
				c-0.94-6.98-1.87-13.97-2.81-20.95c2.44,7.73,4.86,15.05,7.26,22.02c1.6-0.2,3.2-0.4,4.79-0.6c-1.2-8.44-2.4-16.87-3.59-25.3
				c0.3,0.04,0.59,0.09,0.89,0.13C558.29,593.03,558.23,592.56,558.16,592.08z"/>
			<path class="st2" d="M576,615.5c-2.01-7.23-4.05-14.61-6.11-22.18c-1.69-0.11-3.38-0.25-5.07-0.42
				c-0.11,7.71-0.18,15.66-0.22,23.92c-0.24,0.03-0.48,0.05-0.71,0.08c0.07,0.47,0.13,0.93,0.2,1.39c1.34-0.17,2.69-0.34,4.03-0.51
				c-0.06-0.45-0.13-0.89-0.19-1.34c-0.72,0.08-1.44,0.16-2.16,0.25c0.01-2.64,0.03-5.25,0.04-7.83c1.07-0.04,2.15-0.09,3.22-0.14
				c0.65,2.48,1.29,4.93,1.93,7.37c-0.62,0.07-1.23,0.14-1.85,0.21c0.06,0.44,0.13,0.88,0.19,1.32c2.53-0.32,5.06-0.65,7.59-0.97
				c-0.06-0.41-0.12-0.83-0.18-1.25C576.48,615.44,576.24,615.47,576,615.5z M565.83,607.32c0.03-3.57,0.07-7.09,0.12-10.56
				c0.91,3.53,1.81,7.02,2.7,10.48C567.71,607.26,566.77,607.29,565.83,607.32z"/>
			<path class="st2" d="M574.67,593.58c0.39,2.69,0.78,5.37,1.17,8.06c0.21,0,0.41-0.01,0.62-0.02c0.19-2.28,0.39-4.54,0.58-6.78
				c0.4,0,0.79,0,1.19,0c0.96,6.68,1.92,13.36,2.89,20.04c-0.33,0.04-0.65,0.08-0.98,0.12c0.06,0.4,0.12,0.81,0.18,1.22
				c2.33-0.3,4.65-0.6,6.98-0.91c-0.05-0.39-0.11-0.78-0.16-1.17c-0.33,0.04-0.65,0.08-0.98,0.12c-0.92-6.51-1.84-13.03-2.76-19.54
				c0.39-0.02,0.77-0.04,1.16-0.05c0.83,2.13,1.67,4.25,2.49,6.36c0.2-0.02,0.41-0.04,0.62-0.05c-0.35-2.54-0.71-5.07-1.06-7.6
				C582.64,593.62,578.66,593.69,574.67,593.58z"/>
			<path class="st2" d="M597.22,593.46c0.46-0.07,0.93-0.13,1.39-0.2c0.69,5.29,1.37,10.59,2.06,15.88
				c0.38,2.91-0.17,3.66-1.56,3.85c-0.97,0.13-1.4-0.43-1.55-1.61c-0.78-5.88-1.56-11.76-2.34-17.64c0.33-0.04,0.66-0.08,0.99-0.13
				c-0.05-0.38-0.1-0.77-0.15-1.15c-2.37,0.32-4.74,0.57-7.13,0.76c0.05,0.39,0.11,0.77,0.16,1.16c0.33-0.03,0.67-0.06,1-0.09
				c0.74,5.42,1.48,10.84,2.22,16.26c0.3,2.18,1.53,4.31,4.71,3.88c0.66-0.09,1.32-0.17,1.97-0.26c2.24-0.29,3.2-1.56,2.73-5.18
				c-0.68-5.3-1.36-10.6-2.05-15.9c0.29-0.05,0.59-0.1,0.88-0.14c-0.05-0.39-0.1-0.77-0.15-1.15c-1.11,0.18-2.22,0.36-3.34,0.52
				C597.12,592.69,597.17,593.08,597.22,593.46z"/>
			<path class="st2" d="M618.15,608.72c-0.13-1.11-0.26-2.21-0.39-3.32c-0.27-2.26-1.05-4.57-3.36-5.2
				c1.75-1.28,2.34-3.33,2.08-5.56c-0.52-4.37-2.65-5.8-6.01-4.95c-2.54,0.63-5.1,1.19-7.67,1.67c0.05,0.39,0.1,0.77,0.15,1.16
				c0.33-0.06,0.66-0.12,0.98-0.18c0.81,6.43,1.61,12.85,2.42,19.28c-0.32,0.04-0.65,0.09-0.97,0.13c0.05,0.39,0.1,0.77,0.15,1.16
				c2.22-0.3,4.44-0.59,6.66-0.89c-0.05-0.4-0.1-0.79-0.14-1.19c-0.22,0.03-0.44,0.06-0.66,0.09c-0.38-3.12-0.76-6.23-1.14-9.35
				c0.54-0.1,1.09-0.2,1.63-0.3c0.27,2.21,0.54,4.43,0.8,6.64c0.23,1.92,1.3,3.86,3.85,3.53c0.99-0.13,1.98-0.27,2.97-0.4
				c-0.05-0.41-0.1-0.83-0.15-1.24C618.59,609.91,618.22,609.3,618.15,608.72z M611.73,600.08c-0.54,0.11-1.09,0.21-1.63,0.31
				c-0.37-3.04-0.74-6.08-1.11-9.12c0.55-0.13,1.09-0.25,1.63-0.38C610.98,593.96,611.35,597.02,611.73,600.08z"/>
			<path class="st2" d="M627.89,584.03c-1.58,0.63-3.16,1.24-4.76,1.81c-0.27,8.09-0.58,15.93-0.91,23.55
				c-0.24,0.03-0.47,0.07-0.71,0.1c0.05,0.42,0.1,0.84,0.15,1.26c1.34-0.18,2.68-0.36,4.03-0.55c-0.05-0.43-0.1-0.87-0.15-1.3
				c-0.72,0.11-1.44,0.21-2.15,0.32c0.1-2.49,0.2-5,0.29-7.53c1.05-0.22,2.1-0.45,3.15-0.68c0.58,2.46,1.16,4.94,1.74,7.45
				c-0.61,0.09-1.23,0.18-1.84,0.27c0.05,0.44,0.1,0.88,0.16,1.32c2.53-0.34,5.05-0.69,7.58-1.03c-0.06-0.47-0.11-0.95-0.17-1.42
				c-0.24,0.04-0.47,0.07-0.71,0.11C631.63,599.58,629.74,591.7,627.89,584.03z M623.72,600.17c0.14-3.54,0.26-7.13,0.39-10.77
				c0.79,3.34,1.58,6.72,2.37,10.13C625.56,599.75,624.64,599.96,623.72,600.17z"/>
			<path class="st2" d="M644.62,605.99c-0.74,0.12-1.48,0.23-2.23,0.35c-1.09-8.58-2.18-17.17-3.27-25.75
				c0.69-0.34,1.39-0.69,2.08-1.04c-0.07-0.53-0.14-1.06-0.21-1.59c-2.53,1.35-5.09,2.62-7.69,3.79c0.06,0.49,0.12,0.97,0.18,1.45
				c0.31-0.13,0.62-0.27,0.92-0.41c1,8.11,1.99,16.22,2.99,24.32c-0.32,0.05-0.65,0.1-0.97,0.15c0.06,0.48,0.12,0.97,0.18,1.45
				c3.46-0.47,6.93-0.95,10.39-1.43c-0.41-3.11-0.82-6.21-1.23-9.32c-0.2,0.05-0.39,0.1-0.59,0.15
				C645,600.79,644.81,603.41,644.62,605.99z"/>
		</g>
	</g>
</g>
<g>
	
		<rect x="869.75" y="467.84" transform="matrix(0.9871 0.1599 -0.1599 0.9871 86.8671 -133.7868)" class="st2" width="10.18" height="10.18"/>
	
		<rect x="866.66" y="486.93" transform="matrix(0.9871 0.1599 -0.1599 0.9871 89.8785 -133.0471)" class="st2" width="10.18" height="10.18"/>
	
		<rect x="863.57" y="506.01" transform="matrix(0.9871 0.1599 -0.1599 0.9871 92.89 -132.3074)" class="st2" width="10.18" height="10.18"/>
	
		<rect x="860.48" y="525.1" transform="matrix(0.9871 0.1599 -0.1599 0.9871 95.9015 -131.5677)" class="st2" width="10.18" height="10.18"/>
	
		<rect x="857.39" y="544.18" transform="matrix(0.9871 0.1599 -0.1599 0.9871 98.913 -130.828)" class="st2" width="10.18" height="10.18"/>
	
		<rect x="854.3" y="563.27" transform="matrix(0.9871 0.1599 -0.1599 0.9871 101.9245 -130.0884)" class="st2" width="10.18" height="10.18"/>
	<text transform="matrix(0.9871 0.1599 -0.1599 0.9871 887.6965 477.8302)" class="st2 st3 st4">AMERICANO</text>
	<text transform="matrix(0.9871 0.1599 -0.1599 0.9871 884.4753 497.7193)" class="st2 st3 st4">CAFE LATTE</text>
	<text transform="matrix(0.9871 0.1599 -0.1599 0.9871 881.396 516.7308)" class="st2 st3 st4">CAFE MOCHA</text>
	<text transform="matrix(0.9871 0.1599 -0.1599 0.9871 878.3169 535.7423)" class="st2 st3 st4">VANILLA LATTE</text>
	<text transform="matrix(0.9871 0.1599 -0.1599 0.9871 875.2378 554.7539)" class="st2 st3 st4">DECAF</text>
	<text transform="matrix(0.9871 0.1599 -0.1599 0.9871 872.1584 573.7654)" class="st2 st3 st4">ETC</text>
</g>
</svg>
