<svg xmlns="http://www.w3.org/2000/svg" width="150.615" height="61.999" viewBox="0 0 150.615 61.999">
  <g id="그룹_279" data-name="그룹 279" transform="translate(-885 -92.482)">
    <g id="그룹_278" data-name="그룹 278" transform="translate(0 3)">
      <path id="패스_292" data-name="패스 292" d="M11.26,123.265H3.549a3.292,3.292,0,0,0,1.1,2.321,3.664,3.664,0,0,0,2.523.885,3.972,3.972,0,0,0,1.577-.307,3.446,3.446,0,0,0,1.245-.9l.7.806a3.951,3.951,0,0,1-1.533,1.121,5.184,5.184,0,0,1-2.024.385,5.115,5.115,0,0,1-2.514-.6A4.352,4.352,0,0,1,2.918,125.3a4.773,4.773,0,0,1-.613-2.418,4.939,4.939,0,0,1,.587-2.418A4.25,4.25,0,0,1,4.5,118.8a4.5,4.5,0,0,1,2.3-.6,4.457,4.457,0,0,1,2.3.6,4.222,4.222,0,0,1,1.594,1.656,4.986,4.986,0,0,1,.578,2.427ZM4.574,120.12a3.338,3.338,0,0,0-1.025,2.216h6.537a3.346,3.346,0,0,0-1.025-2.216,3.159,3.159,0,0,0-2.252-.85,3.136,3.136,0,0,0-2.235.85" transform="translate(883.588 20.593)" fill="#8265ff"/>
      <path id="패스_293" data-name="패스 293" d="M71.182,127.6l-2.927-3.855L65.312,127.6h-1.4l3.645-4.731-3.469-4.486h1.4l2.769,3.61,2.769-3.61h1.367l-3.469,4.486L72.6,127.6Z" transform="translate(845.851 20.482)" fill="#8265ff"/>
      <path id="패스_294" data-name="패스 294" d="M134.963,118.788a4.207,4.207,0,0,1,1.647,1.656,5.311,5.311,0,0,1,0,4.889,4.22,4.22,0,0,1-1.639,1.657,4.72,4.72,0,0,1-2.357.587,4.358,4.358,0,0,1-2.024-.464,3.836,3.836,0,0,1-1.481-1.359v5.135h-1.244V118.271h1.192v1.822a3.836,3.836,0,0,1,1.481-1.4,4.348,4.348,0,0,1,2.077-.49,4.74,4.74,0,0,1,2.348.587m-.683,7.237a3.158,3.158,0,0,0,1.235-1.271,3.87,3.87,0,0,0,.446-1.875,3.82,3.82,0,0,0-.446-1.866,3.234,3.234,0,0,0-1.235-1.27,3.616,3.616,0,0,0-3.514,0,3.252,3.252,0,0,0-1.227,1.27,3.816,3.816,0,0,0-.447,1.866,3.866,3.866,0,0,0,.447,1.875,3.175,3.175,0,0,0,1.227,1.271,3.676,3.676,0,0,0,3.514,0" transform="translate(806.673 20.593)" fill="#8265ff"/>
      <path id="패스_295" data-name="패스 295" d="M197.215,118.674a4.432,4.432,0,0,1,2.146-.473v1.21l-.3-.018a2.943,2.943,0,0,0-2.278.894,3.559,3.559,0,0,0-.824,2.506v4.7h-1.244v-9.217h1.192v1.805a3.012,3.012,0,0,1,1.306-1.4" transform="translate(765.721 20.593)" fill="#8265ff"/>
      <path id="패스_296" data-name="패스 296" d="M255.011,123.265H247.3a3.292,3.292,0,0,0,1.1,2.321,3.664,3.664,0,0,0,2.523.885,3.972,3.972,0,0,0,1.577-.307,3.446,3.446,0,0,0,1.245-.9l.7.806a3.95,3.95,0,0,1-1.533,1.121,5.184,5.184,0,0,1-2.024.385,5.115,5.115,0,0,1-2.514-.6,4.352,4.352,0,0,1-1.709-1.673,4.773,4.773,0,0,1-.613-2.418,4.939,4.939,0,0,1,.587-2.418,4.25,4.25,0,0,1,1.613-1.665,4.737,4.737,0,0,1,4.6,0,4.222,4.222,0,0,1,1.594,1.656,4.986,4.986,0,0,1,.578,2.427Zm-6.685-3.146a3.338,3.338,0,0,0-1.025,2.216h6.537a3.346,3.346,0,0,0-1.025-2.216,3.385,3.385,0,0,0-4.486,0" transform="translate(734.272 20.593)" fill="#8265ff"/>
      <path id="패스_297" data-name="패스 297" d="M310.26,127.252a4.608,4.608,0,0,1-1.6-.815l.561-.981a4.719,4.719,0,0,0,1.454.745,5.773,5.773,0,0,0,1.822.29,3.482,3.482,0,0,0,1.866-.395,1.254,1.254,0,0,0,.605-1.113,1,1,0,0,0-.333-.8,2.217,2.217,0,0,0-.841-.438,12.119,12.119,0,0,0-1.349-.289,15.626,15.626,0,0,1-1.805-.429,2.657,2.657,0,0,1-1.165-.745,2.071,2.071,0,0,1-.482-1.454,2.28,2.28,0,0,1,.964-1.893,4.329,4.329,0,0,1,2.682-.736,6.928,6.928,0,0,1,1.787.237,4.9,4.9,0,0,1,1.472.621l-.543,1a4.655,4.655,0,0,0-2.716-.789,3.144,3.144,0,0,0-1.8.421,1.287,1.287,0,0,0-.605,1.1,1.091,1.091,0,0,0,.342.841,2.1,2.1,0,0,0,.85.464,13.689,13.689,0,0,0,1.4.307,16.115,16.115,0,0,1,1.769.42,2.6,2.6,0,0,1,1.14.719,1.98,1.98,0,0,1,.473,1.4,2.229,2.229,0,0,1-1.008,1.919,4.792,4.792,0,0,1-2.8.71,7.067,7.067,0,0,1-2.146-.324" transform="translate(695.925 20.593)" fill="#8265ff"/>
      <path id="패스_298" data-name="패스 298" d="M368.563,127.252a4.608,4.608,0,0,1-1.6-.815l.561-.981a4.717,4.717,0,0,0,1.455.745,5.768,5.768,0,0,0,1.822.29,3.482,3.482,0,0,0,1.866-.395,1.254,1.254,0,0,0,.605-1.113,1,1,0,0,0-.333-.8,2.217,2.217,0,0,0-.841-.438,12.116,12.116,0,0,0-1.349-.289,15.626,15.626,0,0,1-1.805-.429,2.657,2.657,0,0,1-1.165-.745,2.071,2.071,0,0,1-.482-1.454,2.28,2.28,0,0,1,.964-1.893,4.329,4.329,0,0,1,2.682-.736,6.928,6.928,0,0,1,1.787.237,4.9,4.9,0,0,1,1.472.621l-.543,1a4.655,4.655,0,0,0-2.716-.789,3.144,3.144,0,0,0-1.8.421,1.287,1.287,0,0,0-.605,1.1,1.091,1.091,0,0,0,.342.841,2.1,2.1,0,0,0,.85.464,13.692,13.692,0,0,0,1.4.307,16.117,16.117,0,0,1,1.769.42,2.6,2.6,0,0,1,1.14.719,1.979,1.979,0,0,1,.473,1.4,2.229,2.229,0,0,1-1.008,1.919,4.792,4.792,0,0,1-2.8.71,7.068,7.068,0,0,1-2.146-.324" transform="translate(660.21 20.593)" fill="#8265ff"/>
    </g>
    <path id="합치기_1" data-name="합치기 1" d="M-1594.323,19.325l-.007,0a1.379,1.379,0,0,1-.253-.116,6.284,6.284,0,0,1-1.654-1.283l-.007,0a6.475,6.475,0,0,1-.983-7.5,6.489,6.489,0,0,1,8.787-2.644,6.445,6.445,0,0,1,2.973,3.376,5.454,5.454,0,0,0-1.857-1.64,5.489,5.489,0,0,0-7.43,2.236,5.458,5.458,0,0,0-.654,2.607,5.454,5.454,0,0,1,.654-2.606,5.487,5.487,0,0,1,7.429-2.236,5.448,5.448,0,0,1,1.858,1.64,6.475,6.475,0,0,1-.337,5.406,6.468,6.468,0,0,1-4.3,3.263,6.465,6.465,0,0,1-1.406.155A6.414,6.414,0,0,1-1594.323,19.325Z" transform="translate(2526.743 86)" fill="#2c2d2d" stroke="rgba(0,0,0,0)" stroke-width="1"/>
    <path id="패스_301" data-name="패스 301" d="M175.22,34.225a10.049,10.049,0,0,0-4.606-3.209A8.42,8.42,0,0,0,174.092,28a7.8,7.8,0,0,0,1.171-4.224,7.4,7.4,0,0,0-3.426-6.367q-3.422-2.394-10.131-2.4H147.09q.026.338.026.676a9.063,9.063,0,0,1-3.339,7.035V47.53a1.367,1.367,0,0,1-.442,1.024H162.66q6.909,0,10.548-2.42a7.731,7.731,0,0,0,3.643-6.827,8.067,8.067,0,0,0-1.631-5.083M154.9,22.913h5.274q3.683,0,3.687,2.49t-3.687,2.5H154.9Zm6.809,17.739H154.9V35.378h6.809q3.734,0,3.739,2.638c0,1.752-1.249,2.637-3.739,2.637m29.015,7.905h-12.2a1.376,1.376,0,0,0,.445-1.024v-31.5a1.378,1.378,0,0,0-.445-1.025h12.2a1.378,1.378,0,0,0-.445,1.025v31.5a1.376,1.376,0,0,0,.445,1.024" transform="translate(797.197 83.81)" fill="#2c2d2d"/>
    <path id="패스_302" data-name="패스 302" d="M316,48.566h-12.2a1.378,1.378,0,0,0,.445-1.025v-31.5a1.375,1.375,0,0,0-.445-1.024H316a1.375,1.375,0,0,0-.445,1.024v31.5A1.378,1.378,0,0,0,316,48.566M295.314,36.038l-.251-.223a1.683,1.683,0,0,1-.3.866,8.451,8.451,0,0,1-6.429,3.1,7.134,7.134,0,0,1-5.432-2.169,8.118,8.118,0,0,1-2.055-5.821,8.119,8.119,0,0,1,2.055-5.82,7.134,7.134,0,0,1,5.432-2.169,8.452,8.452,0,0,1,6.429,3.1,1.686,1.686,0,0,1,.3.867l.251-.224h0l6.8-6.071a15.433,15.433,0,0,0-6.027-4.749,20.055,20.055,0,0,0-8.309-1.643,19.421,19.421,0,0,0-9.13,2.122,15.872,15.872,0,0,0-6.369,5.935,16.392,16.392,0,0,0-2.306,8.651,16.387,16.387,0,0,0,2.306,8.652,15.859,15.859,0,0,0,6.369,5.933,19.4,19.4,0,0,0,9.13,2.123,20.049,20.049,0,0,0,8.309-1.643,15.438,15.438,0,0,0,6.027-4.749l-6.8-6.071h0" transform="translate(719.62 83.801)" fill="#2c2d2d"/>
    <path id="패스_303" data-name="패스 303" d="M112.838,56.525l2.125-10.686a5.212,5.212,0,0,0-3.209-6.176,5.715,5.715,0,0,0-2-.347h-.434a13.7,13.7,0,0,0-4.077.65,10.647,10.647,0,0,0-3.14,1.648l-1.483,7.668c.486-.373,3.1-1.344,2.854-.035l-2.117,10.669a5.17,5.17,0,0,0,5.2,6.471h.434a13.7,13.7,0,0,0,4.077-.65,10.617,10.617,0,0,0,3.148-1.631l1.475-7.607c-.486.364-3.1,1.327-2.854.026" transform="translate(823.365 68.916)" fill="#2c2d2d"/>
    <path id="패스_304" data-name="패스 304" d="M37.645,42.126v-.009l-1.128-2.55-.824-1.891L26.187,15.93c-.269-.668.035-.928.035-.928H14.217s.33.269.018.989L0,48.553H11.884s-.243-.2-.1-.729l1.969-5.118H26.5l1.883,4.875c.3.7-.017.972-.017.972h8.952v-.009a8.483,8.483,0,0,1-.148-4.025ZM16.871,34.562l3.253-8.44,3.261,8.44Z" transform="translate(885 83.81)" fill="#2c2d2d"/>
  </g>
</svg>
