<?xml version="1.0" encoding="UTF-8"?>
<svg id="_레이어_1" data-name="레이어 1" xmlns="http://www.w3.org/2000/svg" viewBox="0 0 113.39 113.39">
  <defs>
    <style>
      .cls-1 {
        fill: #fff;
      }

      .cls-1, .cls-2, .cls-3 {
        stroke-width: 0px;
      }

      .cls-2 {
        fill: #8265ff;
      }

      .cls-4 {
        fill: none;
        stroke: #323333;
        stroke-linecap: round;
        stroke-linejoin: round;
        stroke-width: 1.7px;
      }

      .cls-3 {
        fill: #323333;
      }
    </style>
  </defs>
  <polyline class="cls-4" points="33.21 28.89 34.78 43.91 35.2 47.96"/>
  <polyline class="cls-4" points="39.72 91.36 39.72 91.35 38.08 75.59"/>
  <line class="cls-4" x1="33.01" y1="45.83" x2="35.65" y2="73.23"/>
  <line class="cls-4" x1="31.94" y1="27.28" x2="31.94" y2="24.5"/>
  <path class="cls-2" d="m71.69,60.65l-3.4-3.85c-1.55-2.09-4.2-2.13-4.59-2.12-.53-.06-1.08-.03-1.61,0-6.97.35-13.92.82-20.87,1.43-1.97.08-3.35.88-3.09,3.01.27,4.12.18,8.43,1.15,12.45.5.81,1.59,1.05,2.53.98,6.08-.42,13.56-.62,22.84-1.49.02,0,.04,0,.06,0,2.88,0,3.91-1.6,3.91-1.6l3.58-6.19c.93-1.42-.49-2.61-.49-2.61Z"/>
  <path class="cls-3" d="m68.57,61.26c-.1-.11-.23-.21-.36-.31l-.02-.02c-.13-.08-.28-.13-.42-.18h-.02c-.65-.2-1.38.03-1.85.65-.57.7-.55,1.61.03,2.23l.03.02c.16.15.33.26.5.33.23.11.49.18.73.18.21,0,.42-.03.62-.11.41-.15.75-.42.98-.76v-.02c.13-.21.21-.44.24-.67.07-.49-.11-.96-.47-1.33Zm-1.11,1.79c-.18.07-.47.1-.78-.16-.31-.34-.02-.75.05-.83.18-.23.54-.42.89-.23.18.13.39.34.36.62-.03.26-.24.5-.52.6Z"/>
  <path class="cls-1" d="m44.54,66.76c-.28.12-1.45.3-2.11.3-.12,0-.23-.08-.24-.24l-.34-4.71c-.02-.22.04-.31.25-.37.12-.03.28-.07.48-.1,1.36-.19,2.32.31,2.44,1.27.08.65-.08,1.12-.45,1.42.49.15.84.67.81,1.33-.03.57-.39.91-.83,1.1Zm-1.39-4.34l-.39.06.13,1.65.49-.04c.5-.04.82-.42.8-.93-.03-.55-.57-.79-1.02-.75Zm.4,2.43l-.66.07.1,1.27.87-.1c.38-.05.6-.26.59-.55-.03-.55-.43-.71-.89-.68Z"/>
  <path class="cls-1" d="m48.77,64.47l.81,1.2c.14.19.14.41-.06.57-.22.16-.49.09-.62-.09-.3-.47-.57-.85-.87-1.38-.18.04-.53.08-.75.1.09.44.15.88.2,1.42-.01.23-.13.35-.35.37-.28.02-.44-.07-.49-.27-.1-.94-.54-3.51-.74-4.35-.06-.25.15-.46.53-.56,1.33-.34,2.86-.07,3.02,1.47.05.57-.2,1.19-.67,1.52Zm-.56-2.14c-.3-.22-1.07-.2-1.41-.03l.33,1.75c.15-.01.5-.05.66-.07.58-.09.9-.55.8-1.04-.05-.28-.21-.5-.38-.62Z"/>
  <path class="cls-1" d="m54.13,66.03c-.16.02-.33-.06-.37-.16-.16-.39-.33-.79-.48-1.18-.57-.02-1.12-.01-1.63-.01-.06.46-.17,1.06-.24,1.37-.11.29-.28.38-.6.34-.2-.03-.36-.13-.3-.48.36-2.16.66-3.48,1.03-4.9.08-.32.28-.54.63-.52.28.02.39.16.55.49.37.72,1.55,3.68,1.82,4.52.06.3-.08.5-.42.55Zm-1.1-2.14c-.27-.69-.57-1.48-.83-2.09-.17.66-.3,1.36-.43,2.09h1.26Z"/>
  <path class="cls-1" d="m58.67,65.57c-.24.15-.54.11-.73-.1-.32-.36-1.6-1.84-1.89-2.21.1.91.21,1.61.21,2.46-.07.14-.18.22-.37.23-.24.02-.38-.2-.42-.53-.06-.44-.25-2.28-.29-3.41,0-.26.13-.39.24-.42.22-.07.4,0,.54.21.57.83,1.42,1.64,2.04,2.43-.15-1.24-.29-2.14-.39-2.72-.04-.25.07-.46.41-.48.17-.01.31.07.39.26.08.17.13.61.21,1.25.1.78.19,1.65.26,2.47.02.27-.04.47-.2.57Z"/>
  <path class="cls-1" d="m61.01,65.49c-.11.03-.43.14-.6.08-.22-.09-.26-.42-.29-.65-.17-1.34-.35-2.69-.56-4.06-.02-.16.02-.26.16-.33.38-.21,1.27-.3,1.76-.21,1.06.2,1.64,1.08,1.76,2.15.19,1.76-.87,2.64-2.23,3.02Zm-.55-4.34c.2,1.12.31,2.25.48,3.48.94-.3,1.61-.92,1.43-2.2-.14-.94-.92-1.55-1.91-1.28Z"/>
  <path class="cls-3" d="m76.02,69.67c-.26.29-.76.67-1.63.67-.46,0-1.01-.11-1.68-.39-1.06-.42-2.24-1.2-3.35-2.18-1.11-.98-2.02-2.07-2.57-3.06-.15-.26-.26-.5-.33-.73-.54-1.4-.11-2.2.23-2.59.31-.34.68-.57,1.06-.63h.02c.15.05.29.1.42.18l.02.02c.13.1.26.2.36.31l-.46,1.48c.39.2.28.42.41.28.08-.1.13-.21.13-.24,0,.1.05.26.15.49v.02c.31.62.99,1.61,2.2,2.67,1.19,1.06,2.26,1.63,2.91,1.85-.29-.62-.99-1.63-2.18-2.68-.21-.2-.33-.29-.54-.46l1.48-1.94c.28.21.41.34.67.57,2.33,2.05,4.05,4.83,2.68,6.38Z"/>
  <polyline class="cls-4" points="80.18 28.88 78.62 43.92 78.19 47.95"/>
  <line class="cls-4" x1="75.32" y1="75.58" x2="73.67" y2="91.4"/>
  <path class="cls-4" d="m81.44,24.5c0,.48-.33.95-.94,1.39-2.95,2.11-12.49,3.67-23.81,3.67s-20.84-1.55-23.8-3.67c-.62-.44-.95-.91-.95-1.39,0-2.8,11.08-5.07,24.75-5.07s24.75,2.27,24.75,5.07Z"/>
  <path class="cls-4" d="m81.44,27.28c0,.56-.44,1.1-1.26,1.6-3.26,2.01-12.55,3.46-23.49,3.46s-20.21-1.45-23.48-3.45c-.83-.51-1.27-1.05-1.27-1.61"/>
  <path class="cls-4" d="m32.89,25.89c2.96-2.12,12.49-3.67,23.8-3.67s20.86,1.55,23.81,3.67"/>
  <path class="cls-4" d="m78.62,43.92c1.13.59,1.75,1.24,1.75,1.91l-.03.26c-.16.66-.91,1.3-2.15,1.86-3.76,1.74-11.98,2.94-21.5,2.94s-17.73-1.2-21.49-2.93c-1.24-.57-2-1.2-2.16-1.87l-.03-.26c0-.68.63-1.33,1.77-1.92"/>
  <path class="cls-4" d="m77.73,73.23c0,.85-.87,1.65-2.41,2.35-3.53,1.61-10.55,2.71-18.63,2.71s-15.08-1.09-18.61-2.7c-1.56-.71-2.44-1.51-2.44-2.36"/>
  <path class="cls-4" d="m39.72,91.35h0s-.01.04-.01.05c0,1.4,7.6,2.55,16.98,2.55s16.98-1.15,16.98-2.55"/>
  <line class="cls-4" x1="80.37" y1="45.83" x2="77.74" y2="73.23"/>
  <line class="cls-4" x1="81.44" y1="24.5" x2="81.44" y2="27.28"/>
</svg>