<?xml version="1.0" encoding="UTF-8"?>
<svg id="_레이어_1" data-name="레이어 1" xmlns="http://www.w3.org/2000/svg" viewBox="0 0 113.39 113.39">
  <defs>
    <style>
      .cls-1 {
        fill: #fff;
      }

      .cls-1, .cls-2, .cls-3 {
        stroke-width: 0px;
      }

      .cls-2 {
        fill: #8265ff;
      }

      .cls-3 {
        fill: #323333;
      }
    </style>
  </defs>
  <path class="cls-2" d="m74.75,16.46c-2.18-1.68-5.04-3.38-7.52-4.47-2.62-1.16-4.82-1.67-5.38-.85-7.53,11.36-25.02,39.69-36.31,58.53-.98,1.64-.99,3.85-1.86,5.32-.88,1.48-3.38,3.49-3.38,3.49-.82,1.4-1.57,2.68-2.21,3.8,2.84-.94,7.77-2.68,7.94-2.55.2.14.81,4.66.95,6.31,1.26-.54,3.57-1.53,5.05-2.09.27,2.48.72,2.94,1.72,4.02.11,1.53.21,3.11.29,4.08.62-.98,1.29-2.04,2-3.15-4.44-1.38-6.98-10.14,7.59-12.12,11.5-18.48,26.76-43.35,34.4-55.61.65-1.05-.91-2.87-3.28-4.71h0Z"/>
  <path class="cls-3" d="m34.8,91.61c-.27-.41-.78-.55-1.21-.32-3.09,1.68-6.08,3.55-9.1,5.38-2.01-1.25-4.02-2.58-5.99-3.62.12-3.59.28-7.17.47-10.76.02-1.13-1.77-1.14-1.77,0-.13,2.48-.25,4.98-.35,7.46-.11,2.66-.2,5.32-.22,7.98-.01,1.35-.01,2.71.01,4.05.01.68.73,1.08,1.33.76,4.46-2.41,8.7-5.21,13.06-7.77,1.14-.67,2.28-1.34,3.45-1.97.4-.21.56-.81.32-1.2h0Z"/>
  <path class="cls-3" d="m26.22,66.81c-2.07,4.1-2.94,9.78-6.85,11.49-1.24.52-2.53.45-3.31-.6-5.45-10.54,4.39-25.74,15.4-30.22,1.02-.53,4.93-1.6,6.04-1.66,1.06-.14,2.13-.21,3.2-.21.46,0,.91-.4.88-.88-.02-.48-.39-.88-.88-.88-6.06-.04-11.97,2.29-16.65,6.08-6.91,5.7-12.3,14.64-11.06,23.85.28,2.74,1.4,6.43,4.67,6.6,6.19-.08,7.74-7.38,9.76-11.98.07-.16.2-.45.34-.68.58-.99-.95-1.89-1.54-.91h0Z"/>
  <path class="cls-3" d="m100.46,65.08c-.88-1.75-9.45,4.52-11.05,5.26-10.72,6.63-21.09,14.46-33.67,17.1-4.73,1.29-21.5,4.18-22.82-2.46-.33-2.62,1.66-4.86,4.04-5.7,10.1-3.34,20.19-.56,25.89-12.12,2.53-4.66-1.31-10.76-6.47-10.99-1.14,0-1.14,1.75,0,1.77,1,.04,1.97.44,2.88,1.09,5.37,4.01,1.37,9.67-2.51,13.03-6.79,5.74-20.33,1.38-24.98,9.6-2.97,7.39,5.12,9.34,10.78,9.28.91,2.73,1.02,6.08-1.75,7.31-3.09,1.05-5.53-2.24-6.91-4.32-.4-.53-.49-1.28-1.02-1.69-.64-.41-1.54.27-1.29,1,1.61,3.6,5.37,8.2,9.79,6.68,1.69-.68,2.97-2.26,3.4-4.02,1.02,2.69,4.08,4.57,6.94,3.81,4.02-1.24,4.27-6.59,3.32-10.01,2.81-1.34,7.37-1.93,10.6-3.49,7.83-3.19,14.73-8.17,21.89-12.57,3.47-2.19,6.94-4.41,10.59-6.32.85-.66,2.94-.81,2.35-2.24h0Zm-46.81,26.54c.21,2.04.12,4.57-1.57,5.99-1.68,1.11-3.97.21-5.08-1.31-.94-1.41-1.57-3.64-2.22-5.4,2.71-.12,5.41-.51,8.06-1.02.76-.27.6,1.21.81,1.74Z"/>
  <path class="cls-3" d="m65.27,43.5c3.08-1.26,6.19-2.45,9.31-3.6s6.26-2.26,9.39-3.37c1.74-.61,3.48-1.22,5.22-1.84.44-.15.76-.61.61-1.08-.14-.42-.62-.78-1.08-.61-3.12,1.09-6.24,2.18-9.36,3.29-3.14,1.12-6.27,2.26-9.38,3.45-1.74.67-3.47,1.35-5.19,2.06-.22.09-.4.19-.53.4-.11.19-.15.47-.09.68.07.21.2.42.4.53.21.09.48.18.69.08h0Z"/>
  <path class="cls-1" d="m50.24,44.29c-.83-.62-2.09-.94-3.03-.4-1.56.9-2.22,3.98-.39,4.95,1.26.66,2.54-.39,3.54-1.06.54-.36,1.05-.69,1.59-.79.03,0-.06,0,.06,0,.07,0,.14,0,.2.01-.12-.02,0,0,.05.02.17.05.03,0,.11.05.26.16.47.33.57.52.05.09.06.14.06.15,0,.03.03.21.03.14,0,.21-.03.33-.11.55-.14.39-.38.8-.73,1.04-.45.32-.92.38-1.42.3-.37-.05-.7.32-.71.66-.01.4.29.66.66.71.46.07.97,0,1.41-.14.97-.32,1.6-1.02,2.01-1.94.33-.76.37-1.6-.12-2.3-.41-.59-1.1-1.06-1.83-1.11-1.33-.1-2.46.99-3.52,1.63-.13.08-.25.15-.39.22-.06.03-.12.06-.17.08-.04.02-.21.08-.09.04-.06.02-.13.04-.2.06-.03,0-.18.03-.1.02s-.1,0-.13,0c-.11,0,.09.03-.06,0-.07-.02-.17-.09-.06-.01-.04-.03-.09-.05-.13-.08-.12-.11-.19-.25-.24-.4-.12-.4-.03-.84.11-1.23.14-.38.38-.73.64-.88.11-.06.03-.03.12-.05.03,0,.26-.04.15-.04.07,0,.15,0,.22,0,.04,0,.08,0,.13.01.11.01-.1-.02,0,0,.15.03.29.08.43.13.03,0,.05.02.08.03.1.04-.15-.08,0,0,.05.03.1.05.15.08.11.06.22.13.32.2.3.22.76.08.95-.21.21-.33.09-.72-.21-.95h0Z"/>
  <path class="cls-1" d="m57.49,42.92l-5.35-3.69.93-1.47c.2-.32.11-.74-.21-.95-.32-.2-.74-.11-.95.21l-2.73,4.29c-.2.32-.11.74.21.95.32.2.74.11.95-.21l1.06-1.67,5.3,3.66c.31.22.74.14.95-.17,0,0,.01-.01.02-.02.2-.31.11-.72-.19-.93Z"/>
  <path class="cls-1" d="m61.68,37.05c-1.49,2.18-3.69,2.04-5.38.95-1.49-.97-2.99-3.12-1.37-5.51,1.53-2.26,3.79-2.11,5.52-.96,1.53,1.02,2.81,3.21,1.23,5.52Zm-2.15-4.13c-.85-.56-2.36-1-3.29.38-.99,1.46.16,2.7,1.02,3.28.76.51,2.34.88,3.18-.44.87-1.37.2-2.49-.91-3.22Z"/>
  <path class="cls-1" d="m64.7,26.83l2.63.24c.43.02.74.27.74.75-.02.5-.43.8-.84.77-1-.11-1.86-.17-2.95-.35-.16.3-.5.84-.72,1.17.73.38,1.42.81,2.24,1.36.31.28.35.59.12.92-.29.42-.6.55-.95.38-1.44-.94-5.58-3.27-7-3.96-.42-.21-.48-.74-.19-1.4,1.06-2.27,3.19-4.13,5.55-2.57.87.58,1.45,1.65,1.37,2.69Zm-3.67-1.67c-.65.17-1.51,1.27-1.66,1.96l2.86,1.55c.16-.23.51-.76.66-1,.53-.92.25-1.9-.56-2.32-.46-.25-.94-.27-1.3-.18Z"/>
  <path class="cls-1" d="m70.27,23.29l-4.06-2.58-.93-3.37c-.1-.37-.48-.58-.84-.48-.36.1-.58.48-.48.84l.77,2.78-2.5.08c-.38.01-.67.33-.66.7.01.38.33.68.7.66l3.16-.1,4.1,2.6c.32.2.74.11.95-.21.2-.32.11-.74-.21-.95Z"/>
</svg>