<?xml version="1.0" encoding="UTF-8"?>
<svg id="_레이어_1" data-name="레이어 1" xmlns="http://www.w3.org/2000/svg" viewBox="0 0 113.39 113.39">
  <defs>
    <style>
      .cls-1 {
        fill: #fff;
      }

      .cls-1, .cls-2, .cls-3 {
        stroke-width: 0px;
      }

      .cls-2 {
        fill: #8265ff;
      }

      .cls-4 {
        stroke-linejoin: round;
      }

      .cls-4, .cls-5 {
        fill: none;
        stroke: #323333;
        stroke-linecap: round;
        stroke-width: 1.7px;
      }

      .cls-5 {
        stroke-miterlimit: 10;
      }

      .cls-3 {
        fill: #323333;
      }
    </style>
  </defs>
  <polygon class="cls-4" points="44.22 64.33 44.22 91.52 17.46 85.37 17.46 58.54 44.22 64.33"/>
  <polygon class="cls-4" points="95.93 81.85 44.22 91.52 44.22 64.33 95.92 54.66 95.93 81.85"/>
  <polyline class="cls-4" points="17.46 85.36 17.47 58.53 45.7 53.52"/>
  <polyline class="cls-4" points="67.5 49.65 69.17 49.35 95.93 54.66"/>
  <g>
    <line class="cls-4" x1="42.83" y1="58.99" x2="69.83" y2="53.93"/>
    <path class="cls-4" d="m67.96,33.59l.6-.05,3.35,2.92c1.47,1.27,1.61,3.57.36,5.57l-5.22,8.34-2.91,4.63-15.36,2.88-2.55-3.61-5.66-7.98c-1.43-2.02-.65-5.16,1.77-7.05l4.86-3.8"/>
    <line class="cls-4" x1="52.54" y1="51.63" x2="51.7" y2="48.81"/>
    <line class="cls-4" x1="58.96" y1="47.22" x2="59.27" y2="45.64"/>
    <path class="cls-4" d="m65.36,38.81l2.43-4.86c1.17-2.34.65-4.82-1.26-5.96l-2.68-1.61"/>
    <path class="cls-5" d="m59.96,42.83s3.48-15.73,3.49-15.74c.37-1.69-.6-2.66-1.79-3.43-.54-.35-1.26-.81-1.98-1.27-1.57-1-3.94-.51-5.51,1.14-1.85,1.95-4,4.22-4.33,4.58-2.04,2.17-3.39,4.68-2.66,7.22l3.54,11.13"/>
  </g>
  <path class="cls-2" d="m84.07,68.53l-2.96-2.99c-1.35-1.65-3.65-1.41-3.99-1.37-.46,0-.94.08-1.4.16-6.05,1.03-12.1,2.16-18.13,3.42-1.71.28-2.91,1.12-2.69,2.94.23,3.56.15,7.31,1,10.69.43.65,1.38.75,2.2.59,5.29-1,11.78-1.96,19.84-3.67.02,0,.03,0,.05-.01,2.5-.3,3.39-1.8,3.39-1.8l3.11-5.75c.81-1.33-.42-2.22-.42-2.22Z"/>
  <path class="cls-3" d="m81.35,69.39c-.08-.09-.2-.16-.31-.23h-.01c-.11-.07-.24-.1-.37-.12h-.01c-.57-.1-1.2.17-1.61.76-.49.67-.48,1.46.03,1.93h.03c.14.12.28.2.44.24.2.08.42.1.64.08.18-.02.37-.07.54-.16.35-.17.65-.45.85-.77h0c.11-.21.18-.42.21-.62.06-.43-.1-.82-.41-1.11Zm-.96,1.67c-.16.08-.41.13-.68-.06-.27-.26-.01-.65.04-.73.16-.22.47-.42.78-.29.16.09.34.26.31.5-.03.23-.21.46-.45.58Z"/>
  <path class="cls-1" d="m60.48,76.67c-.24.14-1.26.41-1.83.48-.11.01-.2-.04-.21-.18l-.3-4.05c-.02-.19.04-.28.22-.35.11-.04.25-.09.42-.14,1.18-.31,2.01.02,2.12.85.07.55-.07.98-.4,1.28.43.08.73.5.7,1.07-.03.5-.34.83-.72,1.04Zm-1.21-3.62l-.34.1.11,1.42.42-.08c.44-.09.71-.45.69-.89-.02-.47-.49-.62-.89-.55Zm.35,2.07l-.58.13.09,1.09.76-.18c.33-.09.52-.29.51-.54-.02-.47-.37-.57-.78-.5Z"/>
  <path class="cls-1" d="m64.15,74.24l.7.96c.12.15.12.34-.05.5-.19.17-.43.13-.54-.01-.26-.37-.5-.68-.76-1.11-.16.05-.46.13-.65.16.08.38.13.75.17,1.22-.01.2-.11.32-.31.36-.24.05-.38-.01-.42-.19-.09-.81-.47-2.99-.65-3.7-.05-.21.13-.42.46-.55,1.16-.43,2.49-.36,2.62.96.05.49-.17,1.05-.58,1.39Zm-.49-1.8c-.26-.16-.93-.07-1.22.12l.29,1.49c.13-.03.44-.09.57-.13.5-.14.78-.57.69-.99-.05-.24-.18-.41-.33-.5Z"/>
  <path class="cls-1" d="m68.81,75.04c-.14.03-.29-.02-.32-.1-.14-.32-.28-.65-.42-.98-.49.04-.97.11-1.41.16-.06.4-.15.94-.21,1.22-.1.26-.24.36-.52.35-.18,0-.31-.07-.26-.39.32-1.91.58-3.09.9-4.36.07-.28.25-.5.55-.52.24-.01.34.1.48.36.32.59,1.35,3.03,1.58,3.74.05.25-.07.45-.37.52Zm-.95-1.75c-.23-.58-.49-1.23-.72-1.73-.14.59-.26,1.21-.38,1.86l1.09-.13Z"/>
  <path class="cls-1" d="m72.76,74.17c-.21.16-.47.15-.64-.01-.28-.28-1.39-1.43-1.64-1.72.09.78.18,1.38.18,2.12-.06.13-.15.21-.32.24-.21.04-.33-.13-.37-.42-.05-.37-.22-1.96-.25-2.93,0-.22.11-.35.21-.39.19-.09.34-.04.47.12.5.66,1.24,1.28,1.77,1.9-.13-1.06-.25-1.83-.34-2.32-.04-.22.06-.4.35-.46.15-.03.27.03.34.19.07.14.11.52.18,1.07.09.67.17,1.41.23,2.12.02.23-.04.41-.18.51Z"/>
  <path class="cls-1" d="m74.79,73.85c-.1.04-.38.17-.52.13-.2-.06-.23-.34-.25-.53-.15-1.15-.31-2.3-.48-3.47-.02-.14.02-.23.14-.3.33-.22,1.1-.4,1.53-.37.92.07,1.43.77,1.53,1.69.16,1.51-.76,2.38-1.94,2.85Zm-.48-3.72c.17.95.27,1.93.42,2.97.82-.36,1.4-.97,1.24-2.06-.12-.8-.8-1.25-1.66-.91Z"/>
  <path class="cls-3" d="m87.83,75.92c-.23.28-.66.66-1.41.75-.4.05-.88,0-1.46-.16-.92-.26-1.95-.81-2.91-1.54-.96-.73-1.75-1.58-2.23-2.39-.13-.21-.23-.41-.28-.6-.47-1.16-.1-1.9.2-2.27.27-.33.59-.57.92-.66h.01c.13.03.25.05.37.11h.01c.11.08.23.15.31.24l-.4,1.33c.34.13.24.34.35.2.07-.09.11-.2.11-.23,0,.08.04.22.13.41h0c.27.52.86,1.31,1.91,2.1,1.03.79,1.96,1.18,2.53,1.31-.25-.51-.86-1.31-1.89-2.1-.18-.15-.28-.22-.47-.34l1.29-1.84c.24.15.35.25.58.43,2.02,1.54,3.52,3.77,2.33,5.26Z"/>
</svg>